<?xml version="1.0" encoding="UTF-8"?><svg id="Camada_1" xmlns="http://www.w3.org/2000/svg" viewBox="0 0 316 150"><defs><style>.cls-1{fill:#00adee;}.cls-1,.cls-2{fill-rule:evenodd;}.cls-2{fill:#00386c;}</style></defs><path class="cls-1" d="m65.32,20.62c.14-.18,1.28-1.62,2.12-1.62s1.15.99,1.25,1.57c.21,1.27.46,3.11.94,6.09.71,4.37,1.56,9.43,1.56,9.43-4.62.91-15.69,3.51-19.35,4.55,3.9-6.39,11.13-17.02,13.48-20.02h0Zm31.49,19.64c6.93-.34,14.24-.39,14.85-.39,1.75.02,3.2.19,3.47.95.36,1-.43,2.16-1.69,3.05-.27.19-4.44,2.94-8.91,5.96-6.85,4.61-15.4,10.2-15.4,10.2.05.16-3.27-14.91-3.9-18.94,0,0,5.72-.55,11.59-.83h0Zm-44.98,44.64s-16.16-13.45-17.02-14.18c0,0,10.24-19.18,13.42-24.05,1.96-.54,16.98-3.3,24.07-4.15,0,0,2.11,11.65,5.25,25.04,0,0-20.81,13.81-25.72,17.34h0Zm33.51,12.38h0c-2.51-8.61-5.02-18.16-5.02-18.16l-19.27,13.63s22.34,19.6,26.64,23.39c.09.08,1.04.83,1.37.99.78.36,1.38.16,1.67-.33.31-.53.25-1.4-.04-2.29-1.11-3.44-3.37-10.48-5.34-17.23h0Zm-61.08,7.43h0c5.48-3.75,22.54-16.07,22.54-16.07-2.91-2.57-14.73-12.65-14.73-12.65,0,0-9.54,20.16-11.92,25.31-.11.25-1.15,2.43-.86,3.65.18.62.67,2.12,3.18.89.31-.16,1.49-.94,1.78-1.14h0Zm-5.37-46.61h0c2.38,1.93,12.13,9.64,12.13,9.64,1.37-2.39,1.35-2.61,4.67-8.43,1.44-2.52,3.51-5.87,6.59-11.26-11.94,2.87-20.7,6.03-22.67,6.76-.15.05-.84.35-1.03.48-.5.34-.72.74-.75,1.13-.04.85.79,1.48,1.06,1.69h0Zm86.36,56.74c-1.98-5.3-4.39-11.84-6.45-18.61-3.86-12.7-7.06-24.97-6.97-25.02,2.47-1.65,24.57-16.66,40.53-25.76.25-.14,4.94-2.77,5.39-6.05.11-.9,0-1.79-.28-2.64-.8-2.39-2.82-4.53-8.49-4.89-4.46-.33-12.25-.82-20.86-.34-8.4.29-17.38,1.2-24.1,2.33,0,0-2.68-16.44-3.64-23.2-.06-.42-.51-2.99-1.19-4.08-.7-1.11-1.86-2.14-3.74-2.48-.43-.08-.82-.11-1.2-.12h-.12c-1.34.02-2.37.46-3.14,1.01-1.05.75-2.44,2.81-2.82,3.35-4.28,6.01-16.33,23.8-22.34,33.96,0,0-18.76,5.76-30.18,10.51-3.37,1.4-3.69,3.08-3.78,3.99-.06.66-.03,2.39,2.63,4.61,3.33,2.8,13.79,11.42,13.79,11.42-3.7,5.84-17.9,34.81-19.28,42.87-.4,2.33-.36,4.73,1.32,6.93,1.05,1.37,2.96,2.34,4.95,2.41,2.41.04,5.72-2.52,7.13-3.53,11.3-8.08,33.38-25.01,33.38-25.01,8.32,7.46,25.88,23.55,35.17,32.17,1.08,1.01,4.51,4.19,7.85,4.25,6.36.19,8.42-5.25,8.73-7.15.52-4.37-1.66-9.23-2.3-10.94Z"/><path class="cls-2" d="m157.43,111.9c-6.6,0-10.6-4.69-10.6-10.96,0-6.31,4.49-11.29,11.15-11.29,2.51,0,4.47.6,5.58,1.25l-.03,2.91c-1.65-1.02-3.23-1.61-5.58-1.61-4.92,0-7.96,3.8-7.96,8.54s2.94,8.51,7.82,8.51c1.88,0,3.66-.56,5.18-1.39l.86,2.28c-2.14,1.23-4.32,1.75-6.43,1.75Z"/><path class="cls-2" d="m171.66,97.95c-2.17,0-3.53,1.91-3.53,4.15h6.93c0-2-1.12-4.15-3.4-4.15h0Zm-3.5,6.43c0,2.77,1.78,5.05,4.92,5.05,1.35,0,2.74-.46,3.79-1.08l.83,1.94c-1.35,1.03-3.37,1.62-5.18,1.62-5.09,0-7.42-4-7.42-8.35s2.6-7.98,6.6-7.98,6.47,3.19,6.47,8.04v.76h-10Z"/><path class="cls-2" d="m191.01,111.57v-9.47c0-1.81-.3-3.86-2.58-3.86-1.71,0-3.33,1.13-4.56,2.18v11.15h-2.9v-15.6h2.44l.36,1.78c1.77-1.32,3.37-2.17,5.54-2.17s4.62,1.54,4.62,5.54v10.45s-2.94,0-2.94,0Z"/><path class="cls-2" d="m202,111.9c-2.45,0-3.53-1.38-3.53-3.44v-10.16h-2.6v-2.34h2.6v-3.5l2.94-.93v4.42h4.82l-.96,2.34h-3.86v9.18c0,1.29.49,1.88,1.52,1.88s2.08-.56,2.7-1.02l.86,1.97c-1.33.96-3.04,1.59-4.49,1.59Z"/><path class="cls-2" d="m216.37,98.8c-.44-.23-1-.36-1.62-.36-.92,0-2.28.69-3.27,1.71v11.42h-2.94v-15.6h2.44l.37,1.75c1.94-1.78,3.16-2.14,4.39-2.14.73,0,1.39.26,1.78.53l-1.15,2.7Z"/><path class="cls-2" d="m220.34,103.72c0,3.46,1.64,5.78,4.39,5.78s4.32-2.35,4.32-5.78-1.58-5.74-4.38-5.74c-2.8,0-4.32,2.3-4.32,5.74h0Zm9.57-6.04c1.39,1.45,2.15,3.56,2.15,6.08s-.79,4.65-2.22,6.1c-1.28,1.32-3.06,2.05-5.17,2.05s-3.77-.66-5.05-1.91c-1.45-1.46-2.25-3.67-2.25-6.2s.79-4.65,2.22-6.14c1.28-1.33,3.03-2.08,5.1-2.08s3.93.75,5.22,2.11Z"/><path class="cls-2" d="m163.35,141.96c-1.36,1.39-3.43,2.24-6.46,2.24-2.84,0-4.78-.76-6.08-1.98-1.68-1.65-2.11-4.09-2.11-6.24v-13.85h2.94v13.79c0,1.51.37,3.16,1.45,4.29.82.85,2.08,1.42,3.86,1.42,2.02,0,3.37-.53,4.23-1.42.92-.99,1.29-2.45,1.29-4.09v-13.99h2.93v14.19c0,2.14-.63,4.19-2.04,5.64Z"/><path class="cls-2" d="m179.02,143.87v-9.47c0-1.81-.29-3.87-2.57-3.87-1.72,0-3.34,1.13-4.56,2.19v11.15h-2.9v-15.6h2.45l.36,1.78c1.78-1.32,3.36-2.17,5.55-2.17s4.62,1.55,4.62,5.54v10.45h-2.94Z"/><path class="cls-2" d="m185.42,143.87v-15.6h2.9v15.6h-2.9Zm3.4-20.52c0,1.05-.89,1.95-1.94,1.95s-1.95-.86-1.95-1.95c0-1.02.86-1.91,1.95-1.91s1.94.86,1.94,1.91Z"/><polygon class="cls-2" points="198.87 143.97 196.66 143.97 190.56 128.27 193.55 128.27 197.82 140.15 197.88 140.15 202.54 128.27 205.37 128.27 198.87 143.97"/><path class="cls-2" d="m212.43,130.25c-2.17,0-3.53,1.91-3.53,4.16h6.93c0-2.01-1.12-4.16-3.4-4.16h0Zm-3.5,6.44c0,2.77,1.78,5.05,4.91,5.05,1.35,0,2.74-.47,3.79-1.09l.83,1.95c-1.36,1.02-3.37,1.61-5.18,1.61-5.09,0-7.43-3.99-7.43-8.35s2.61-7.98,6.6-7.98,6.47,3.2,6.47,8.05c0,.2,0,.46,0,.76h-10Z"/><path class="cls-2" d="m229.57,131.11c-.43-.23-.99-.36-1.62-.36-.92,0-2.27.69-3.27,1.72v11.41h-2.94v-15.6h2.44l.36,1.74c1.95-1.78,3.17-2.14,4.39-2.14.72,0,1.39.26,1.78.52l-1.15,2.71Z"/><path class="cls-2" d="m235.83,144.2c-2.38,0-3.89-.59-5.01-1.28l1.06-2.22c.85.56,2.24,1.22,3.92,1.22,1.82,0,3.07-.79,3.07-2.11,0-3.47-7.12-2.21-7.12-7.66,0-2.37,1.81-4.28,5.44-4.28,1.75,0,3.04.36,4.13.82v2.51c-1.15-.5-2.38-.96-4.02-.96-1.52,0-2.67.53-2.67,1.78,0,3.14,7.26,2.28,7.26,7.49,0,3.34-2.81,4.68-6.04,4.68Z"/><path class="cls-2" d="m244.6,143.87v-15.6h2.9v15.6h-2.9Zm3.4-20.52c0,1.05-.89,1.95-1.95,1.95s-1.94-.86-1.94-1.95c0-1.02.86-1.91,1.94-1.91s1.95.86,1.95,1.91Z"/><path class="cls-2" d="m255.95,144.2c-2.44,0-3.53-1.39-3.53-3.43v-10.16h-2.6v-2.34h2.6v-3.5l2.94-.92v4.42h4.81l-.95,2.34h-3.86v9.17c0,1.29.49,1.89,1.52,1.89s2.08-.56,2.71-1.02l.85,1.98c-1.32.96-3.03,1.58-4.48,1.58Z"/><path class="cls-2" d="m269.04,126.35h-2.5l2.87-4.85h3.72l-4.09,4.85h0Zm2.11,10.13l-2.79.1c-2.58.1-3.66.96-3.66,2.54,0,1.49.95,2.64,2.86,2.64s2.97-.85,3.59-1.52v-3.76h0Zm.86,7.39l-.66-1.48c-.96.92-2.44,1.81-4.68,1.81-2.64,0-4.89-1.85-4.89-4.85s2.28-4.98,6.37-5.11l3.03-.1c0-.19,0-.49,0-.59,0-2.41-1.38-3.27-3.26-3.27s-3.17.73-4.07,1.35l-1.08-1.98c1.94-1.38,3.7-1.78,5.71-1.78,3.26,0,5.64,1.38,5.64,5.41v5.25c0,3.7.09,4.78.29,5.34h-2.41Z"/><path class="cls-2" d="m285.43,131.11c-.43-.23-.99-.36-1.61-.36-.93,0-2.28.69-3.27,1.72v11.41h-2.94v-15.6h2.44l.37,1.74c1.94-1.78,3.16-2.14,4.38-2.14.73,0,1.38.26,1.78.52l-1.16,2.71Z"/><path class="cls-2" d="m289.18,143.87v-15.6h2.91v15.6h-2.91Zm3.41-20.52c0,1.05-.9,1.95-1.95,1.95s-1.95-.86-1.95-1.95c0-1.02.85-1.91,1.95-1.91s1.95.86,1.95,1.91Z"/><path class="cls-2" d="m297.59,136.02c0,3.47,1.65,5.78,4.39,5.78s4.32-2.35,4.32-5.78c0-3.46-1.59-5.74-4.39-5.74s-4.33,2.31-4.33,5.74h0Zm9.57-6.04c1.38,1.45,2.14,3.57,2.14,6.08s-.79,4.65-2.21,6.1c-1.29,1.31-3.08,2.04-5.18,2.04s-3.76-.66-5.05-1.91c-1.45-1.46-2.26-3.66-2.26-6.21s.8-4.66,2.22-6.14c1.29-1.32,3.04-2.07,5.12-2.07s3.92.75,5.22,2.1Z"/><path class="cls-2" d="m181.38,74.82c-3.2,3.2-7.83,4.96-14.37,4.96s-11.03-1.44-14.11-4.44c-2.88-2.81-4.25-7.05-4.25-12.09v-27.17h8.88v26.45c0,3.13.98,5.42,2.41,7.05,1.57,1.76,4.19,2.68,7.19,2.68,3.46,0,5.95-.92,7.52-2.68,1.5-1.56,2.16-3.85,2.16-6.66v-26.85h8.95v26.25c0,5.23-1.44,9.54-4.38,12.48Z"/><path class="cls-2" d="m206.66,43.53h-4.77v28.21h4.89c10.65,0,14.83-6.73,14.83-14.24,0-8.49-5.1-13.98-14.96-13.98h0Zm-.19,35.6h-13.52v-43.05h14.3c15.35,0,23.97,8.29,23.97,21.16s-9.86,21.89-24.75,21.89Z"/><polygon class="cls-2" points="260.08 43.4 246.3 43.4 246.3 53.66 259.89 53.66 259.96 60.98 246.3 60.98 246.3 79.13 237.35 79.13 237.35 36.09 262.37 36.09 260.08 43.4"/></svg>