<?xml version="1.0" encoding="utf-8"?>
<!-- Generator: Adobe Illustrator 25.0.0, SVG Export Plug-In . SVG Version: 6.00 Build 0)  -->
<svg version="1.1" id="Camada_1" xmlns="http://www.w3.org/2000/svg" xmlns:xlink="http://www.w3.org/1999/xlink" x="0px" y="0px"
	 viewBox="0 0 239 77" style="enable-background:new 0 0 239 77;" xml:space="preserve">
<style type="text/css">
	.st0{fill:#005CA8;}
	.st1{fill:#0066B2;}
</style>
<g>
	<path class="st0" d="M3.79,54.24c-0.02,0.14-0.04,0.3-0.05,0.47c-0.01,0.18,0.03,0.35,0.12,0.51c0.09,0.16,0.25,0.3,0.48,0.41
		c0.23,0.11,0.57,0.17,1.03,0.17c0.41,0,0.75-0.05,1.02-0.16c0.27-0.11,0.49-0.24,0.65-0.39c0.16-0.15,0.28-0.31,0.35-0.47
		c0.07-0.16,0.12-0.29,0.14-0.39c0.04-0.22,0.04-0.4-0.01-0.54c-0.05-0.14-0.15-0.26-0.29-0.36c-0.14-0.09-0.32-0.18-0.53-0.24
		c-0.21-0.07-0.44-0.13-0.71-0.2c-0.29-0.07-0.53-0.14-0.75-0.2c-0.21-0.06-0.4-0.11-0.55-0.16c-0.16-0.05-0.29-0.1-0.41-0.16
		c-0.11-0.06-0.21-0.12-0.3-0.18c-0.27-0.22-0.43-0.47-0.49-0.75c-0.05-0.28-0.05-0.55,0.01-0.81c0.08-0.4,0.24-0.75,0.48-1.04
		c0.24-0.29,0.52-0.53,0.84-0.72c0.32-0.19,0.67-0.33,1.05-0.42s0.76-0.14,1.13-0.14c0.13,0,0.29,0.01,0.48,0.02
		c0.19,0.01,0.38,0.05,0.57,0.1c0.19,0.06,0.37,0.13,0.55,0.24c0.18,0.1,0.33,0.24,0.46,0.42c0.09,0.12,0.15,0.25,0.19,0.37
		C9.28,49.76,9.3,49.88,9.31,50c0.01,0.12,0,0.23-0.01,0.33c-0.01,0.11-0.03,0.2-0.04,0.28H8.11c0.04-0.25,0.02-0.45-0.04-0.61
		C8,49.84,7.9,49.72,7.76,49.63c-0.14-0.09-0.3-0.15-0.48-0.18C7.1,49.42,6.91,49.4,6.71,49.4c-0.55,0-1.01,0.12-1.37,0.35
		c-0.36,0.23-0.58,0.54-0.66,0.94c-0.04,0.18-0.04,0.33-0.01,0.45c0.03,0.12,0.09,0.23,0.19,0.32c0.1,0.09,0.23,0.16,0.4,0.22
		c0.17,0.06,0.37,0.12,0.59,0.18c0.44,0.12,0.79,0.22,1.07,0.3c0.27,0.07,0.49,0.14,0.65,0.19c0.16,0.05,0.29,0.11,0.38,0.16
		c0.09,0.05,0.19,0.11,0.29,0.19c0.15,0.12,0.27,0.26,0.34,0.41c0.08,0.15,0.12,0.29,0.14,0.44c0.02,0.15,0.02,0.29,0.01,0.42
		c-0.01,0.13-0.03,0.24-0.05,0.32c-0.07,0.35-0.21,0.68-0.41,0.98c-0.2,0.3-0.45,0.56-0.76,0.79c-0.31,0.22-0.68,0.4-1.1,0.52
		C6,56.69,5.53,56.75,5.03,56.75c-0.15,0-0.34-0.01-0.55-0.03c-0.21-0.02-0.43-0.06-0.64-0.12c-0.22-0.06-0.42-0.15-0.62-0.27
		c-0.19-0.12-0.34-0.28-0.46-0.48C2.69,55.7,2.63,55.55,2.6,55.4c-0.03-0.15-0.04-0.29-0.04-0.43s0.01-0.27,0.03-0.4
		c0.02-0.12,0.04-0.23,0.06-0.33H3.79z"/>
	<path class="st0" d="M11,53.99c-0.07,0.29-0.11,0.55-0.1,0.79c0.01,0.24,0.06,0.45,0.15,0.63c0.09,0.18,0.23,0.32,0.41,0.42
		c0.18,0.1,0.41,0.15,0.7,0.15c0.34,0,0.65-0.09,0.93-0.27c0.28-0.18,0.49-0.47,0.61-0.87h1.03c-0.04,0.14-0.11,0.31-0.21,0.52
		c-0.1,0.21-0.26,0.42-0.5,0.63c-0.07,0.07-0.17,0.14-0.29,0.23c-0.12,0.09-0.27,0.17-0.43,0.24c-0.17,0.07-0.36,0.14-0.58,0.19
		c-0.22,0.05-0.47,0.08-0.75,0.08c-0.87,0-1.46-0.25-1.77-0.76s-0.38-1.19-0.19-2.06c0.12-0.54,0.3-1.03,0.54-1.48
		c0.24-0.44,0.61-0.81,1.11-1.11c0.15-0.1,0.3-0.17,0.45-0.22c0.15-0.05,0.3-0.09,0.44-0.12c0.14-0.03,0.27-0.05,0.39-0.05
		c0.12-0.01,0.22-0.01,0.3-0.01c0.41,0,0.74,0.05,1,0.16c0.26,0.11,0.46,0.25,0.6,0.43c0.14,0.18,0.23,0.38,0.28,0.6
		c0.05,0.22,0.07,0.45,0.05,0.68c-0.01,0.23-0.04,0.45-0.08,0.66s-0.08,0.39-0.11,0.54H11z M14.06,53.27
		c0.03-0.13,0.05-0.29,0.07-0.48c0.01-0.19-0.01-0.36-0.06-0.53c-0.06-0.17-0.16-0.31-0.32-0.43c-0.16-0.12-0.39-0.18-0.71-0.18
		c-0.17,0-0.35,0.03-0.53,0.08c-0.19,0.05-0.36,0.15-0.53,0.27c-0.17,0.13-0.32,0.29-0.46,0.5c-0.14,0.21-0.24,0.46-0.32,0.77H14.06
		z"/>
	<path class="st0" d="M16.92,52.17c0.05-0.19,0.08-0.38,0.1-0.57s0.05-0.37,0.08-0.55h1.04l-0.21,1.06c0.1-0.19,0.2-0.35,0.33-0.48
		c0.12-0.13,0.26-0.24,0.4-0.32c0.14-0.08,0.29-0.15,0.43-0.19c0.14-0.04,0.27-0.07,0.39-0.09c0.16-0.02,0.3-0.03,0.42-0.03
		s0.22,0,0.31,0.01l-0.22,1.01c-0.04-0.01-0.11-0.03-0.19-0.04c-0.04-0.01-0.08-0.01-0.13-0.01c-0.05,0-0.11,0-0.16,0
		c-0.31,0-0.57,0.04-0.78,0.13c-0.21,0.08-0.39,0.2-0.53,0.35c-0.14,0.15-0.26,0.33-0.34,0.53c-0.08,0.21-0.15,0.42-0.2,0.66
		l-0.63,2.93h-1.04L16.92,52.17z"/>
	<path class="st0" d="M20.54,51.05h1.15l0.82,4.37l2.64-4.37h1.14l-3.59,5.51h-1.04L20.54,51.05z"/>
	<path class="st0" d="M27.49,51.05h1.03l-1.18,5.51h-1.03L27.49,51.05z M27.89,48.66h1.24l-0.24,1.13h-1.24L27.89,48.66z"/>
	<path class="st0" d="M33.97,54.73c-0.07,0.26-0.17,0.5-0.31,0.73c-0.14,0.23-0.32,0.43-0.54,0.61c-0.21,0.18-0.46,0.32-0.73,0.43
		c-0.27,0.11-0.57,0.18-0.89,0.2l-0.46,0.51c0.06-0.01,0.12-0.03,0.19-0.04c0.07-0.01,0.15-0.02,0.25-0.02
		c0.16,0,0.29,0.03,0.39,0.08c0.1,0.05,0.17,0.12,0.23,0.19c0.05,0.08,0.08,0.16,0.09,0.25c0.01,0.09,0.01,0.18-0.01,0.26
		c-0.01,0.02-0.03,0.09-0.07,0.19c-0.04,0.11-0.11,0.22-0.22,0.33c-0.11,0.12-0.27,0.22-0.47,0.32c-0.2,0.1-0.47,0.14-0.81,0.14
		c-0.26,0-0.46-0.02-0.6-0.07c-0.14-0.04-0.27-0.1-0.38-0.15l0.3-0.41c0.06,0.04,0.14,0.07,0.25,0.1c0.11,0.03,0.26,0.05,0.46,0.05
		c0.19,0,0.34-0.04,0.46-0.11c0.12-0.07,0.19-0.18,0.22-0.33c0.02-0.1,0.02-0.17-0.01-0.23c-0.03-0.06-0.07-0.1-0.13-0.13
		c-0.06-0.03-0.11-0.05-0.18-0.05c-0.06-0.01-0.12-0.01-0.16-0.01c-0.08,0-0.15,0.01-0.2,0.02c-0.06,0.01-0.12,0.04-0.2,0.07
		l-0.13-0.19l0.72-0.78c-0.42-0.05-0.75-0.16-0.99-0.34c-0.24-0.17-0.42-0.38-0.53-0.64c-0.11-0.25-0.17-0.53-0.17-0.85
		c0-0.31,0.03-0.63,0.1-0.95c0.13-0.61,0.32-1.12,0.56-1.5c0.25-0.39,0.52-0.69,0.82-0.92s0.61-0.38,0.91-0.47
		c0.3-0.08,0.58-0.13,0.84-0.13c0.09,0,0.2,0.01,0.34,0.02c0.14,0.01,0.29,0.05,0.43,0.09c0.15,0.05,0.29,0.12,0.43,0.2
		c0.14,0.09,0.25,0.21,0.34,0.36c0.15,0.23,0.23,0.46,0.23,0.68c0,0.22-0.01,0.4-0.03,0.55h-1.04c0.01-0.07,0.01-0.16,0.02-0.29
		c0.01-0.13-0.01-0.26-0.06-0.38c-0.05-0.13-0.13-0.24-0.25-0.33c-0.12-0.1-0.31-0.14-0.55-0.14c-0.36,0-0.65,0.09-0.88,0.26
		c-0.23,0.18-0.42,0.38-0.55,0.62c-0.14,0.23-0.24,0.47-0.3,0.7c-0.06,0.23-0.1,0.4-0.13,0.5c-0.07,0.29-0.11,0.56-0.12,0.82
		c-0.02,0.26,0.01,0.49,0.07,0.7c0.06,0.2,0.16,0.37,0.31,0.49c0.15,0.12,0.36,0.18,0.64,0.18c0.22,0,0.41-0.04,0.58-0.11
		c0.17-0.07,0.31-0.17,0.42-0.29c0.11-0.12,0.21-0.25,0.28-0.39c0.08-0.14,0.13-0.28,0.16-0.41H33.97z"/>
	<path class="st0" d="M35.01,53.87c0.07-0.34,0.19-0.68,0.35-1.03c0.16-0.35,0.38-0.67,0.66-0.95c0.28-0.29,0.62-0.52,1.01-0.7
		c0.4-0.18,0.86-0.27,1.41-0.27c0.55,0,0.98,0.1,1.29,0.29c0.31,0.19,0.54,0.44,0.68,0.72c0.14,0.29,0.21,0.6,0.21,0.94
		c0,0.34-0.02,0.65-0.08,0.93c-0.09,0.4-0.23,0.78-0.42,1.14c-0.19,0.36-0.43,0.67-0.71,0.94c-0.29,0.27-0.62,0.48-1.01,0.64
		c-0.39,0.16-0.82,0.24-1.28,0.24c-0.45,0-0.83-0.08-1.14-0.23s-0.55-0.35-0.72-0.61c-0.17-0.26-0.28-0.56-0.31-0.91
		C34.9,54.65,34.92,54.27,35.01,53.87z M36.1,53.81c-0.06,0.29-0.08,0.56-0.08,0.82c0.01,0.26,0.06,0.49,0.15,0.69
		c0.09,0.2,0.23,0.36,0.41,0.48c0.18,0.12,0.42,0.18,0.71,0.18c0.2,0,0.4-0.04,0.62-0.12c0.22-0.08,0.42-0.2,0.62-0.37
		c0.19-0.17,0.37-0.4,0.53-0.68c0.16-0.28,0.29-0.63,0.37-1.05c0.15-0.69,0.11-1.21-0.1-1.56c-0.21-0.35-0.56-0.53-1.05-0.53
		c-0.17,0-0.36,0.03-0.57,0.09s-0.42,0.17-0.63,0.33c-0.21,0.16-0.4,0.38-0.58,0.65C36.33,53.02,36.19,53.37,36.1,53.81z"/>
	<path class="st0" d="M46.36,48.63h1.53l2.51,6.55l1.38-6.55h1.01l-1.68,7.93h-1.41l-2.6-6.73l-1.43,6.73h-1L46.36,48.63z"/>
	<path class="st0" d="M56.51,56.56c-0.01-0.14,0-0.27,0.01-0.41c0.01-0.13,0.04-0.27,0.07-0.42c-0.18,0.23-0.35,0.41-0.53,0.54
		c-0.18,0.13-0.35,0.23-0.52,0.3c-0.17,0.07-0.33,0.11-0.47,0.13c-0.15,0.02-0.28,0.03-0.4,0.03c-0.31,0-0.59-0.04-0.81-0.13
		c-0.23-0.08-0.41-0.2-0.54-0.35c-0.13-0.15-0.22-0.32-0.26-0.52c-0.04-0.2-0.04-0.41,0.01-0.64c0.02-0.11,0.06-0.23,0.12-0.37
		c0.05-0.14,0.13-0.28,0.24-0.42c0.1-0.14,0.23-0.29,0.38-0.43c0.15-0.14,0.34-0.27,0.57-0.39c0.17-0.08,0.34-0.14,0.53-0.19
		c0.18-0.05,0.37-0.08,0.55-0.11c0.18-0.03,0.35-0.04,0.51-0.05c0.16-0.01,0.29-0.01,0.4-0.01c0.13,0,0.25,0,0.35,0.01
		c0.1,0,0.23,0.01,0.4,0.03c0.04-0.17,0.07-0.32,0.09-0.44c0.02-0.13,0.04-0.24,0.05-0.33c0.01-0.09,0.01-0.17,0-0.25
		c-0.01-0.07-0.03-0.14-0.08-0.2c-0.07-0.14-0.2-0.23-0.38-0.29c-0.18-0.05-0.35-0.08-0.49-0.08c-0.26,0-0.47,0.04-0.64,0.12
		c-0.16,0.08-0.29,0.17-0.38,0.27c-0.1,0.1-0.16,0.21-0.2,0.31s-0.07,0.18-0.08,0.24h-1.03c0.05-0.15,0.11-0.31,0.19-0.49
		c0.08-0.18,0.22-0.36,0.42-0.55c0.13-0.12,0.28-0.21,0.44-0.29c0.16-0.08,0.33-0.14,0.49-0.18c0.17-0.04,0.34-0.07,0.5-0.09
		c0.17-0.02,0.33-0.03,0.47-0.03c0.2,0,0.39,0.02,0.59,0.05c0.19,0.03,0.37,0.08,0.53,0.15c0.16,0.07,0.3,0.15,0.42,0.25
		c0.12,0.1,0.2,0.22,0.24,0.36c0.05,0.17,0.07,0.32,0.06,0.46c-0.01,0.14-0.03,0.27-0.05,0.39l-0.6,2.63
		c-0.01,0.02-0.02,0.08-0.03,0.18c-0.02,0.1-0.03,0.21-0.06,0.34c-0.03,0.13-0.05,0.27-0.07,0.43c-0.02,0.15-0.04,0.3-0.04,0.44
		H56.51z M56.96,53.88c-0.1-0.01-0.19-0.02-0.27-0.03c-0.08,0-0.19-0.01-0.31-0.01c-0.1,0-0.27,0.01-0.49,0.02
		c-0.22,0.01-0.45,0.05-0.69,0.12c-0.24,0.07-0.46,0.18-0.66,0.34c-0.2,0.15-0.33,0.37-0.39,0.65c-0.02,0.09-0.03,0.19-0.02,0.3
		c0.01,0.11,0.05,0.21,0.11,0.31c0.06,0.1,0.16,0.18,0.29,0.25c0.13,0.07,0.31,0.1,0.55,0.1c0.53,0,0.96-0.2,1.31-0.59
		c0.08-0.1,0.15-0.19,0.2-0.27c0.05-0.09,0.1-0.19,0.13-0.3c0.04-0.11,0.07-0.24,0.11-0.38C56.86,54.24,56.91,54.07,56.96,53.88z"/>
	<path class="st0" d="M63.18,52.82c0.01-0.07,0.01-0.16,0.02-0.29c0.01-0.13-0.01-0.26-0.06-0.38c-0.05-0.13-0.13-0.24-0.25-0.33
		c-0.12-0.1-0.31-0.14-0.55-0.14c-0.36,0-0.65,0.09-0.88,0.26c-0.23,0.18-0.42,0.38-0.55,0.62c-0.14,0.23-0.24,0.47-0.3,0.7
		c-0.06,0.23-0.1,0.4-0.13,0.5c-0.07,0.29-0.11,0.56-0.12,0.82c-0.02,0.26,0.01,0.49,0.07,0.7c0.06,0.2,0.16,0.37,0.31,0.49
		s0.36,0.18,0.64,0.18c0.22,0,0.41-0.04,0.58-0.11c0.17-0.07,0.31-0.17,0.42-0.29c0.11-0.12,0.21-0.25,0.28-0.39
		c0.08-0.14,0.13-0.28,0.16-0.41h1.04c-0.07,0.27-0.18,0.53-0.34,0.76c-0.16,0.24-0.35,0.45-0.58,0.63
		c-0.23,0.18-0.49,0.32-0.79,0.43c-0.29,0.11-0.61,0.16-0.94,0.16c-0.1,0-0.21-0.01-0.36-0.02c-0.14-0.01-0.29-0.05-0.44-0.09
		c-0.15-0.05-0.31-0.12-0.46-0.21c-0.15-0.1-0.29-0.22-0.4-0.38c-0.06-0.1-0.12-0.2-0.17-0.33c-0.05-0.12-0.1-0.27-0.12-0.44
		c-0.03-0.17-0.03-0.36-0.02-0.58c0.01-0.22,0.05-0.47,0.1-0.76c0.12-0.57,0.3-1.05,0.54-1.43c0.24-0.38,0.51-0.69,0.8-0.92
		c0.29-0.23,0.59-0.39,0.91-0.48c0.31-0.09,0.6-0.14,0.88-0.14c0.09,0,0.2,0.01,0.34,0.02s0.29,0.05,0.43,0.09
		c0.15,0.05,0.29,0.12,0.43,0.2c0.14,0.09,0.25,0.21,0.34,0.36c0.15,0.23,0.23,0.46,0.23,0.68c0,0.22-0.01,0.4-0.03,0.55H63.18z"/>
	<path class="st0" d="M65.93,51.05h1.03l-1.18,5.51h-1.03L65.93,51.05z M66.32,48.66h1.24l-0.24,1.13h-1.24L66.32,48.66z"/>
	<path class="st0" d="M67.96,53.87c0.07-0.34,0.19-0.68,0.35-1.03c0.16-0.35,0.38-0.67,0.66-0.95c0.28-0.29,0.62-0.52,1.01-0.7
		c0.4-0.18,0.86-0.27,1.41-0.27c0.55,0,0.98,0.1,1.29,0.29c0.31,0.19,0.54,0.44,0.68,0.72c0.14,0.29,0.21,0.6,0.21,0.94
		c0,0.34-0.02,0.65-0.08,0.93c-0.09,0.4-0.23,0.78-0.42,1.14c-0.19,0.36-0.43,0.67-0.71,0.94c-0.29,0.27-0.62,0.48-1.01,0.64
		c-0.39,0.16-0.82,0.24-1.28,0.24c-0.45,0-0.83-0.08-1.14-0.23s-0.55-0.35-0.72-0.61c-0.17-0.26-0.28-0.56-0.31-0.91
		C67.84,54.65,67.87,54.27,67.96,53.87z M69.04,53.81c-0.06,0.29-0.08,0.56-0.08,0.82c0.01,0.26,0.06,0.49,0.15,0.69
		c0.09,0.2,0.23,0.36,0.41,0.48c0.18,0.12,0.42,0.18,0.71,0.18c0.2,0,0.4-0.04,0.62-0.12c0.22-0.08,0.42-0.2,0.62-0.37
		c0.19-0.17,0.37-0.4,0.53-0.68c0.16-0.28,0.29-0.63,0.37-1.05c0.15-0.69,0.11-1.21-0.1-1.56c-0.21-0.35-0.56-0.53-1.05-0.53
		c-0.17,0-0.36,0.03-0.57,0.09c-0.21,0.06-0.42,0.17-0.63,0.33c-0.21,0.16-0.4,0.38-0.58,0.65C69.27,53.02,69.14,53.37,69.04,53.81z
		"/>
	<path class="st0" d="M75.56,51.69l0.13-0.64h1.03l-0.19,0.89c0.04-0.06,0.11-0.14,0.21-0.25c0.1-0.11,0.22-0.22,0.38-0.33
		c0.16-0.11,0.35-0.21,0.58-0.29c0.23-0.08,0.5-0.13,0.82-0.13c0.12,0,0.29,0.02,0.51,0.05c0.22,0.04,0.42,0.12,0.61,0.25
		c0.19,0.13,0.34,0.32,0.45,0.57c0.11,0.25,0.12,0.59,0.02,1.01l-0.79,3.74h-1.05l0.75-3.5c0.04-0.18,0.05-0.36,0.05-0.52
		c0-0.16-0.05-0.3-0.15-0.43c-0.1-0.12-0.23-0.22-0.4-0.28c-0.16-0.06-0.33-0.09-0.5-0.09c-0.19,0-0.38,0.03-0.56,0.1
		c-0.19,0.07-0.36,0.17-0.52,0.31c-0.16,0.14-0.3,0.31-0.42,0.52c-0.12,0.21-0.21,0.45-0.28,0.72l-0.67,3.17h-1.03L75.56,51.69z"/>
	<path class="st0" d="M84.57,56.56c-0.01-0.14,0-0.27,0.01-0.41c0.01-0.13,0.04-0.27,0.07-0.42c-0.18,0.23-0.35,0.41-0.53,0.54
		c-0.18,0.13-0.35,0.23-0.52,0.3c-0.17,0.07-0.33,0.11-0.47,0.13c-0.15,0.02-0.28,0.03-0.4,0.03c-0.31,0-0.59-0.04-0.81-0.13
		c-0.23-0.08-0.41-0.2-0.54-0.35c-0.13-0.15-0.22-0.32-0.26-0.52c-0.04-0.2-0.04-0.41,0.01-0.64c0.02-0.11,0.06-0.23,0.12-0.37
		c0.05-0.14,0.13-0.28,0.24-0.42c0.1-0.14,0.23-0.29,0.38-0.43c0.15-0.14,0.34-0.27,0.57-0.39c0.17-0.08,0.34-0.14,0.53-0.19
		c0.18-0.05,0.37-0.08,0.55-0.11c0.18-0.03,0.35-0.04,0.51-0.05c0.16-0.01,0.29-0.01,0.4-0.01c0.13,0,0.25,0,0.35,0.01
		c0.1,0,0.23,0.01,0.4,0.03c0.04-0.17,0.07-0.32,0.09-0.44c0.02-0.13,0.04-0.24,0.05-0.33c0.01-0.09,0.01-0.17,0-0.25
		c-0.01-0.07-0.03-0.14-0.08-0.2c-0.07-0.14-0.2-0.23-0.38-0.29c-0.18-0.05-0.35-0.08-0.49-0.08c-0.26,0-0.47,0.04-0.64,0.12
		c-0.16,0.08-0.29,0.17-0.38,0.27c-0.1,0.1-0.16,0.21-0.2,0.31c-0.04,0.11-0.07,0.18-0.08,0.24h-1.03c0.05-0.15,0.11-0.31,0.19-0.49
		c0.08-0.18,0.22-0.36,0.42-0.55c0.13-0.12,0.28-0.21,0.44-0.29c0.16-0.08,0.33-0.14,0.49-0.18c0.17-0.04,0.34-0.07,0.5-0.09
		c0.17-0.02,0.33-0.03,0.47-0.03c0.2,0,0.39,0.02,0.59,0.05c0.19,0.03,0.37,0.08,0.53,0.15c0.16,0.07,0.3,0.15,0.42,0.25
		c0.12,0.1,0.2,0.22,0.24,0.36c0.05,0.17,0.07,0.32,0.06,0.46c-0.01,0.14-0.03,0.27-0.05,0.39l-0.6,2.63
		c-0.01,0.02-0.02,0.08-0.03,0.18c-0.02,0.1-0.03,0.21-0.06,0.34c-0.03,0.13-0.05,0.27-0.07,0.43c-0.02,0.15-0.04,0.3-0.04,0.44
		H84.57z M85.02,53.88c-0.1-0.01-0.19-0.02-0.27-0.03c-0.08,0-0.19-0.01-0.31-0.01c-0.1,0-0.27,0.01-0.49,0.02
		c-0.22,0.01-0.45,0.05-0.69,0.12c-0.24,0.07-0.46,0.18-0.66,0.34c-0.2,0.15-0.33,0.37-0.39,0.65c-0.02,0.09-0.03,0.19-0.02,0.3
		c0.01,0.11,0.05,0.21,0.11,0.31c0.06,0.1,0.16,0.18,0.29,0.25c0.13,0.07,0.31,0.1,0.55,0.1c0.53,0,0.96-0.2,1.31-0.59
		c0.08-0.1,0.15-0.19,0.2-0.27c0.05-0.09,0.1-0.19,0.13-0.3c0.04-0.11,0.07-0.24,0.11-0.38C84.92,54.24,84.97,54.07,85.02,53.88z"/>
	<path class="st0" d="M89.01,48.65h1.03l-1.68,7.92h-1.03L89.01,48.65z"/>
	<path class="st0" d="M98.91,48.65h1.03l-1.49,7.04c-0.01,0.03-0.02,0.08-0.03,0.15c-0.01,0.07-0.02,0.15-0.04,0.23
		c-0.01,0.08-0.03,0.17-0.04,0.26c-0.02,0.09-0.03,0.17-0.03,0.24h-1.03l0.16-0.88c-0.06,0.08-0.13,0.17-0.22,0.27
		c-0.09,0.1-0.22,0.2-0.39,0.31c-0.26,0.15-0.52,0.26-0.78,0.32s-0.48,0.09-0.67,0.09c-0.18,0-0.4-0.03-0.66-0.1
		c-0.26-0.07-0.49-0.2-0.7-0.4s-0.36-0.48-0.47-0.85c-0.1-0.37-0.09-0.85,0.04-1.46c0.11-0.53,0.27-0.98,0.49-1.36
		c0.22-0.38,0.47-0.69,0.76-0.93c0.29-0.25,0.59-0.43,0.91-0.54c0.32-0.12,0.64-0.18,0.97-0.18c0.29,0,0.53,0.04,0.72,0.12
		c0.19,0.08,0.34,0.17,0.45,0.27c0.11,0.1,0.19,0.21,0.24,0.31c0.05,0.1,0.08,0.18,0.1,0.24L98.91,48.65z M97.87,53.73
		c0.09-0.4,0.12-0.72,0.08-0.96c-0.03-0.24-0.09-0.43-0.17-0.58c-0.08-0.15-0.21-0.28-0.39-0.39c-0.18-0.11-0.42-0.17-0.71-0.17
		c-0.26,0-0.48,0.05-0.67,0.14s-0.35,0.21-0.49,0.35c-0.14,0.14-0.26,0.3-0.36,0.47c-0.1,0.17-0.18,0.34-0.25,0.51
		c-0.07,0.16-0.11,0.31-0.15,0.45c-0.03,0.14-0.05,0.23-0.06,0.29c-0.05,0.24-0.08,0.49-0.1,0.74c-0.02,0.25,0.01,0.48,0.08,0.68
		c0.07,0.2,0.19,0.37,0.36,0.49c0.17,0.13,0.42,0.19,0.73,0.19c0.4,0,0.73-0.1,1-0.29c0.26-0.19,0.47-0.41,0.63-0.66
		c0.15-0.25,0.27-0.5,0.33-0.74C97.8,54.01,97.85,53.84,97.87,53.73z"/>
	<path class="st0" d="M101.3,53.99c-0.07,0.29-0.11,0.55-0.1,0.79c0.01,0.24,0.06,0.45,0.15,0.63c0.09,0.18,0.23,0.32,0.41,0.42
		c0.18,0.1,0.41,0.15,0.7,0.15c0.34,0,0.65-0.09,0.93-0.27c0.28-0.18,0.49-0.47,0.61-0.87h1.03c-0.04,0.14-0.11,0.31-0.21,0.52
		s-0.26,0.42-0.5,0.63c-0.07,0.07-0.17,0.14-0.29,0.23c-0.12,0.09-0.27,0.17-0.43,0.24c-0.17,0.07-0.36,0.14-0.58,0.19
		c-0.22,0.05-0.47,0.08-0.75,0.08c-0.87,0-1.46-0.25-1.77-0.76s-0.38-1.19-0.19-2.06c0.12-0.54,0.3-1.03,0.54-1.48
		c0.24-0.44,0.61-0.81,1.11-1.11c0.15-0.1,0.3-0.17,0.45-0.22c0.15-0.05,0.3-0.09,0.44-0.12c0.14-0.03,0.27-0.05,0.39-0.05
		c0.12-0.01,0.22-0.01,0.3-0.01c0.41,0,0.74,0.05,1,0.16c0.26,0.11,0.46,0.25,0.6,0.43c0.14,0.18,0.23,0.38,0.28,0.6
		c0.05,0.22,0.07,0.45,0.05,0.68c-0.01,0.23-0.04,0.45-0.08,0.66c-0.04,0.21-0.08,0.39-0.11,0.54H101.3z M104.36,53.27
		c0.03-0.13,0.05-0.29,0.07-0.48c0.01-0.19-0.01-0.36-0.06-0.53c-0.06-0.17-0.16-0.31-0.32-0.43c-0.16-0.12-0.39-0.18-0.71-0.18
		c-0.17,0-0.35,0.03-0.53,0.08c-0.19,0.05-0.36,0.15-0.53,0.27c-0.17,0.13-0.32,0.29-0.46,0.5c-0.14,0.21-0.24,0.46-0.32,0.77
		H104.36z"/>
	<path class="st0" d="M113.43,48.63h1.18l1.53,7.93h-1.2l-0.42-2.06h-3.68l-1.3,2.06h-1.13L113.43,48.63z M111.38,53.61h3
		l-0.64-3.89L111.38,53.61z"/>
	<path class="st0" d="M118.15,51.95c0.02-0.06,0.03-0.11,0.03-0.16c0.01-0.05,0.03-0.11,0.04-0.18c0.01-0.07,0.02-0.14,0.04-0.23
		c0.01-0.09,0.03-0.2,0.05-0.33h1.04l-0.18,0.91c0.18-0.22,0.36-0.39,0.56-0.52c0.2-0.13,0.39-0.23,0.58-0.3
		c0.19-0.07,0.37-0.12,0.53-0.14c0.16-0.02,0.3-0.03,0.41-0.03c0.29,0,0.57,0.05,0.83,0.16c0.26,0.11,0.47,0.27,0.64,0.51
		c0.16,0.23,0.27,0.53,0.33,0.88c0.05,0.36,0.03,0.79-0.08,1.31c-0.11,0.51-0.27,0.95-0.49,1.33c-0.22,0.37-0.46,0.68-0.75,0.92
		c-0.28,0.24-0.59,0.42-0.92,0.53c-0.33,0.11-0.66,0.17-0.99,0.17c-0.4,0-0.73-0.08-0.99-0.23c-0.26-0.15-0.43-0.35-0.53-0.59
		l-0.58,2.73h-1.02L118.15,51.95z M118.71,53.97c-0.04,0.17-0.07,0.37-0.09,0.6c-0.02,0.23-0.01,0.46,0.05,0.67
		c0.05,0.21,0.17,0.39,0.34,0.54c0.18,0.15,0.45,0.23,0.81,0.23c0.07,0,0.15-0.01,0.24-0.02s0.2-0.03,0.32-0.07
		c0.12-0.04,0.24-0.09,0.36-0.16c0.12-0.07,0.24-0.17,0.36-0.29c0.12-0.13,0.23-0.28,0.33-0.44c0.1-0.16,0.17-0.32,0.24-0.48
		c0.06-0.16,0.11-0.31,0.15-0.44c0.04-0.14,0.07-0.26,0.09-0.36c0.06-0.25,0.09-0.49,0.1-0.74c0.01-0.24-0.03-0.46-0.1-0.65
		c-0.07-0.19-0.19-0.34-0.36-0.46c-0.17-0.12-0.41-0.18-0.71-0.18c-0.41,0-0.75,0.09-1.01,0.28c-0.26,0.19-0.47,0.4-0.63,0.65
		c-0.16,0.25-0.27,0.5-0.34,0.75C118.79,53.66,118.74,53.85,118.71,53.97z"/>
	<path class="st0" d="M124.9,52.17c0.05-0.19,0.08-0.38,0.1-0.57s0.05-0.37,0.08-0.55h1.04l-0.21,1.06c0.1-0.19,0.2-0.35,0.33-0.48
		c0.12-0.13,0.26-0.24,0.4-0.32c0.14-0.08,0.29-0.15,0.43-0.19c0.14-0.04,0.27-0.07,0.39-0.09c0.16-0.02,0.3-0.03,0.42-0.03
		s0.22,0,0.31,0.01l-0.22,1.01c-0.04-0.01-0.11-0.03-0.19-0.04c-0.04-0.01-0.08-0.01-0.13-0.01c-0.05,0-0.11,0-0.16,0
		c-0.31,0-0.57,0.04-0.78,0.13c-0.21,0.08-0.39,0.2-0.53,0.35c-0.14,0.15-0.26,0.33-0.34,0.53c-0.08,0.21-0.15,0.42-0.2,0.66
		l-0.63,2.93h-1.04L124.9,52.17z"/>
	<path class="st0" d="M129.36,53.99c-0.07,0.29-0.11,0.55-0.1,0.79c0.01,0.24,0.06,0.45,0.15,0.63c0.09,0.18,0.23,0.32,0.41,0.42
		c0.18,0.1,0.41,0.15,0.7,0.15c0.34,0,0.65-0.09,0.93-0.27c0.28-0.18,0.49-0.47,0.61-0.87h1.03c-0.04,0.14-0.11,0.31-0.21,0.52
		c-0.1,0.21-0.26,0.42-0.5,0.63c-0.07,0.07-0.17,0.14-0.29,0.23c-0.12,0.09-0.27,0.17-0.43,0.24c-0.17,0.07-0.36,0.14-0.58,0.19
		c-0.22,0.05-0.47,0.08-0.75,0.08c-0.87,0-1.46-0.25-1.77-0.76c-0.31-0.51-0.38-1.19-0.19-2.06c0.12-0.54,0.3-1.03,0.54-1.48
		c0.24-0.44,0.61-0.81,1.11-1.11c0.15-0.1,0.3-0.17,0.45-0.22c0.15-0.05,0.3-0.09,0.44-0.12c0.14-0.03,0.27-0.05,0.39-0.05
		c0.12-0.01,0.22-0.01,0.3-0.01c0.41,0,0.74,0.05,1,0.16c0.26,0.11,0.46,0.25,0.6,0.43c0.14,0.18,0.23,0.38,0.28,0.6
		c0.05,0.22,0.07,0.45,0.05,0.68c-0.01,0.23-0.04,0.45-0.08,0.66c-0.04,0.21-0.08,0.39-0.11,0.54H129.36z M132.42,53.27
		c0.03-0.13,0.05-0.29,0.07-0.48c0.01-0.19-0.01-0.36-0.06-0.53c-0.06-0.17-0.16-0.31-0.32-0.43c-0.16-0.12-0.39-0.18-0.71-0.18
		c-0.17,0-0.35,0.03-0.53,0.08c-0.19,0.05-0.36,0.15-0.53,0.27c-0.17,0.13-0.32,0.29-0.46,0.5c-0.14,0.21-0.24,0.46-0.32,0.77
		H132.42z"/>
	<path class="st0" d="M135.35,51.69l0.13-0.64h1.03l-0.19,0.89c0.04-0.06,0.11-0.14,0.21-0.25c0.1-0.11,0.22-0.22,0.38-0.33
		c0.16-0.11,0.35-0.21,0.58-0.29c0.23-0.08,0.5-0.13,0.82-0.13c0.12,0,0.29,0.02,0.51,0.05c0.22,0.04,0.42,0.12,0.61,0.25
		c0.19,0.13,0.34,0.32,0.45,0.57c0.11,0.25,0.12,0.59,0.02,1.01l-0.79,3.74h-1.05l0.75-3.5c0.04-0.18,0.05-0.36,0.05-0.52
		c0-0.16-0.05-0.3-0.15-0.43c-0.1-0.12-0.23-0.22-0.4-0.28c-0.16-0.06-0.33-0.09-0.5-0.09c-0.19,0-0.38,0.03-0.57,0.1
		c-0.19,0.07-0.36,0.17-0.52,0.31c-0.16,0.14-0.3,0.31-0.42,0.52c-0.12,0.21-0.21,0.45-0.28,0.72l-0.67,3.17h-1.03L135.35,51.69z"/>
	<path class="st0" d="M146.5,48.65h1.03l-1.49,7.04c-0.01,0.03-0.02,0.08-0.03,0.15c-0.01,0.07-0.02,0.15-0.04,0.23
		c-0.01,0.08-0.03,0.17-0.04,0.26c-0.02,0.09-0.03,0.17-0.03,0.24h-1.03l0.16-0.88c-0.06,0.08-0.13,0.17-0.22,0.27
		c-0.09,0.1-0.22,0.2-0.39,0.31c-0.26,0.15-0.52,0.26-0.78,0.32s-0.48,0.09-0.67,0.09c-0.18,0-0.4-0.03-0.66-0.1
		c-0.26-0.07-0.49-0.2-0.7-0.4s-0.36-0.48-0.47-0.85c-0.1-0.37-0.09-0.85,0.04-1.46c0.11-0.53,0.27-0.98,0.49-1.36
		c0.22-0.38,0.47-0.69,0.76-0.93c0.29-0.25,0.59-0.43,0.91-0.54c0.32-0.12,0.64-0.18,0.97-0.18c0.29,0,0.53,0.04,0.72,0.12
		c0.19,0.08,0.34,0.17,0.45,0.27c0.11,0.1,0.19,0.21,0.24,0.31c0.05,0.1,0.08,0.18,0.1,0.24L146.5,48.65z M145.45,53.73
		c0.09-0.4,0.12-0.72,0.08-0.96c-0.03-0.24-0.09-0.43-0.17-0.58c-0.08-0.15-0.21-0.28-0.39-0.39c-0.18-0.11-0.42-0.17-0.71-0.17
		c-0.26,0-0.48,0.05-0.67,0.14s-0.35,0.21-0.49,0.35c-0.14,0.14-0.26,0.3-0.36,0.47c-0.1,0.17-0.18,0.34-0.25,0.51
		c-0.07,0.16-0.11,0.31-0.15,0.45c-0.03,0.14-0.05,0.23-0.06,0.29c-0.05,0.24-0.08,0.49-0.1,0.74c-0.02,0.25,0.01,0.48,0.08,0.68
		c0.07,0.2,0.19,0.37,0.36,0.49c0.17,0.13,0.42,0.19,0.73,0.19c0.4,0,0.73-0.1,1-0.29c0.26-0.19,0.47-0.41,0.63-0.66
		c0.15-0.25,0.27-0.5,0.33-0.74C145.38,54.01,145.43,53.84,145.45,53.73z"/>
	<path class="st0" d="M148.89,51.05h1.03l-1.18,5.51h-1.03L148.89,51.05z M149.28,48.66h1.24l-0.24,1.13h-1.24L149.28,48.66z"/>
	<path class="st0" d="M150.35,55.5l3.72-3.67h-2.79l0.16-0.78h3.96l-0.19,0.88l-3.85,3.83h3.04l-0.18,0.8h-4.12L150.35,55.5z"/>
	<path class="st0" d="M158.99,56.56c-0.01-0.14,0-0.27,0.01-0.41c0.01-0.13,0.04-0.27,0.07-0.42c-0.18,0.23-0.35,0.41-0.53,0.54
		c-0.18,0.13-0.35,0.23-0.52,0.3c-0.17,0.07-0.33,0.11-0.47,0.13c-0.15,0.02-0.28,0.03-0.4,0.03c-0.31,0-0.59-0.04-0.81-0.13
		c-0.23-0.08-0.41-0.2-0.54-0.35c-0.13-0.15-0.22-0.32-0.26-0.52c-0.04-0.2-0.04-0.41,0.01-0.64c0.02-0.11,0.06-0.23,0.12-0.37
		c0.05-0.14,0.13-0.28,0.24-0.42c0.1-0.14,0.23-0.29,0.38-0.43c0.15-0.14,0.34-0.27,0.57-0.39c0.17-0.08,0.34-0.14,0.53-0.19
		c0.18-0.05,0.37-0.08,0.55-0.11c0.18-0.03,0.35-0.04,0.51-0.05c0.16-0.01,0.29-0.01,0.4-0.01c0.13,0,0.25,0,0.35,0.01
		c0.1,0,0.23,0.01,0.4,0.03c0.04-0.17,0.07-0.32,0.09-0.44c0.02-0.13,0.04-0.24,0.05-0.33c0.01-0.09,0.01-0.17,0-0.25
		c-0.01-0.07-0.03-0.14-0.08-0.2c-0.07-0.14-0.2-0.23-0.38-0.29c-0.18-0.05-0.35-0.08-0.49-0.08c-0.26,0-0.47,0.04-0.64,0.12
		c-0.16,0.08-0.29,0.17-0.38,0.27c-0.1,0.1-0.16,0.21-0.2,0.31s-0.07,0.18-0.08,0.24h-1.03c0.05-0.15,0.11-0.31,0.19-0.49
		c0.08-0.18,0.22-0.36,0.42-0.55c0.13-0.12,0.28-0.21,0.44-0.29c0.16-0.08,0.33-0.14,0.49-0.18c0.17-0.04,0.34-0.07,0.5-0.09
		c0.17-0.02,0.33-0.03,0.47-0.03c0.2,0,0.39,0.02,0.59,0.05c0.19,0.03,0.37,0.08,0.53,0.15c0.16,0.07,0.3,0.15,0.42,0.25
		c0.12,0.1,0.2,0.22,0.24,0.36c0.05,0.17,0.07,0.32,0.06,0.46c-0.01,0.14-0.03,0.27-0.05,0.39l-0.6,2.63
		c-0.01,0.02-0.02,0.08-0.03,0.18c-0.02,0.1-0.03,0.21-0.06,0.34c-0.03,0.13-0.05,0.27-0.07,0.43c-0.02,0.15-0.04,0.3-0.04,0.44
		H158.99z M159.44,53.88c-0.1-0.01-0.19-0.02-0.27-0.03c-0.08,0-0.19-0.01-0.31-0.01c-0.1,0-0.27,0.01-0.49,0.02
		c-0.22,0.01-0.45,0.05-0.69,0.12c-0.24,0.07-0.46,0.18-0.66,0.34c-0.2,0.15-0.33,0.37-0.39,0.65c-0.02,0.09-0.03,0.19-0.02,0.3
		c0.01,0.11,0.05,0.21,0.11,0.31c0.06,0.1,0.16,0.18,0.29,0.25c0.13,0.07,0.31,0.1,0.55,0.1c0.53,0,0.96-0.2,1.31-0.59
		c0.08-0.1,0.15-0.19,0.2-0.27c0.05-0.09,0.1-0.19,0.13-0.3c0.04-0.11,0.07-0.24,0.11-0.38C159.34,54.24,159.39,54.07,159.44,53.88z
		"/>
	<path class="st0" d="M162.63,56.99c-0.03,0.15-0.03,0.3-0.02,0.43c0.02,0.13,0.07,0.25,0.14,0.34c0.08,0.09,0.19,0.17,0.34,0.22
		c0.15,0.06,0.34,0.08,0.59,0.08c0.36,0,0.65-0.06,0.87-0.19c0.22-0.12,0.4-0.3,0.54-0.52c0.14-0.22,0.25-0.49,0.33-0.8
		c0.08-0.31,0.17-0.65,0.25-1.03c-0.16,0.23-0.34,0.4-0.54,0.53c-0.2,0.12-0.39,0.22-0.58,0.28c-0.19,0.06-0.37,0.1-0.53,0.11
		c-0.16,0.01-0.28,0.02-0.36,0.02c-0.12,0-0.26-0.01-0.41-0.03c-0.15-0.02-0.29-0.05-0.43-0.1c-0.14-0.05-0.27-0.12-0.4-0.2
		c-0.12-0.09-0.23-0.21-0.32-0.35c-0.18-0.28-0.27-0.59-0.29-0.94c-0.01-0.35,0.01-0.71,0.09-1.09c0.1-0.47,0.25-0.88,0.46-1.22
		c0.2-0.35,0.44-0.64,0.71-0.87c0.27-0.23,0.57-0.4,0.89-0.52c0.32-0.11,0.65-0.17,0.98-0.17c0.28,0,0.51,0.03,0.69,0.09
		c0.18,0.06,0.33,0.13,0.45,0.22c0.12,0.09,0.21,0.18,0.26,0.27c0.06,0.1,0.11,0.18,0.15,0.25l0.18-0.76h1l-0.24,1l-0.74,3.45
		c-0.07,0.33-0.14,0.61-0.2,0.86c-0.06,0.24-0.12,0.45-0.17,0.63c-0.05,0.18-0.11,0.33-0.18,0.46c-0.07,0.13-0.14,0.24-0.21,0.35
		c-0.16,0.22-0.35,0.4-0.56,0.53c-0.21,0.13-0.43,0.23-0.65,0.3c-0.22,0.07-0.44,0.11-0.67,0.13c-0.23,0.02-0.44,0.03-0.63,0.03
		c-0.37,0-0.67-0.03-0.92-0.08c-0.24-0.05-0.44-0.13-0.59-0.21c-0.15-0.09-0.25-0.19-0.32-0.31c-0.07-0.12-0.12-0.25-0.14-0.38
		c-0.03-0.13-0.03-0.27-0.02-0.4c0.02-0.14,0.03-0.27,0.06-0.39H162.63z M164.1,55.69c0.31,0,0.57-0.05,0.77-0.15
		c0.21-0.1,0.39-0.23,0.54-0.4c0.07-0.07,0.14-0.15,0.2-0.23c0.06-0.08,0.12-0.18,0.18-0.3c0.06-0.12,0.11-0.26,0.17-0.43
		c0.05-0.17,0.11-0.38,0.16-0.63c0.07-0.35,0.1-0.63,0.07-0.84c-0.03-0.21-0.1-0.39-0.2-0.53c-0.11-0.15-0.25-0.26-0.45-0.35
		c-0.19-0.09-0.4-0.13-0.64-0.13c-0.33,0-0.61,0.07-0.84,0.22c-0.23,0.15-0.41,0.32-0.56,0.53c-0.15,0.21-0.26,0.43-0.34,0.66
		c-0.08,0.23-0.14,0.43-0.18,0.61c-0.04,0.21-0.07,0.43-0.08,0.66c-0.01,0.23,0.02,0.44,0.09,0.64s0.19,0.35,0.36,0.48
		C163.55,55.63,163.79,55.69,164.1,55.69z"/>
	<path class="st0" d="M169.62,53.99c-0.07,0.29-0.11,0.55-0.1,0.79c0.01,0.24,0.06,0.45,0.15,0.63c0.09,0.18,0.23,0.32,0.41,0.42
		c0.18,0.1,0.41,0.15,0.7,0.15c0.34,0,0.65-0.09,0.93-0.27c0.28-0.18,0.49-0.47,0.61-0.87h1.03c-0.04,0.14-0.11,0.31-0.21,0.52
		c-0.1,0.21-0.26,0.42-0.5,0.63c-0.07,0.07-0.17,0.14-0.29,0.23c-0.12,0.09-0.27,0.17-0.43,0.24c-0.17,0.07-0.36,0.14-0.58,0.19
		c-0.22,0.05-0.47,0.08-0.75,0.08c-0.87,0-1.46-0.25-1.77-0.76c-0.31-0.51-0.38-1.19-0.19-2.06c0.12-0.54,0.3-1.03,0.54-1.48
		c0.24-0.44,0.61-0.81,1.11-1.11c0.15-0.1,0.3-0.17,0.45-0.22c0.15-0.05,0.3-0.09,0.44-0.12c0.14-0.03,0.27-0.05,0.39-0.05
		c0.12-0.01,0.22-0.01,0.3-0.01c0.41,0,0.74,0.05,1,0.16c0.26,0.11,0.46,0.25,0.6,0.43c0.14,0.18,0.23,0.38,0.28,0.6
		c0.05,0.22,0.07,0.45,0.05,0.68c-0.01,0.23-0.04,0.45-0.08,0.66c-0.04,0.21-0.08,0.39-0.11,0.54H169.62z M172.68,53.27
		c0.03-0.13,0.05-0.29,0.07-0.48c0.01-0.19-0.01-0.36-0.06-0.53c-0.06-0.17-0.16-0.31-0.32-0.43c-0.16-0.12-0.39-0.18-0.71-0.18
		c-0.17,0-0.35,0.03-0.53,0.08c-0.19,0.05-0.36,0.15-0.53,0.27c-0.17,0.13-0.32,0.29-0.46,0.5c-0.14,0.21-0.24,0.46-0.32,0.77
		H172.68z"/>
	<path class="st0" d="M175.54,51.78l0.14-0.74h1.04l-0.18,0.8c0.18-0.22,0.36-0.39,0.54-0.52c0.18-0.12,0.35-0.22,0.52-0.28
		s0.33-0.1,0.48-0.12c0.15-0.02,0.28-0.03,0.4-0.03c0.31,0,0.56,0.03,0.75,0.1c0.19,0.07,0.34,0.16,0.46,0.26
		c0.12,0.1,0.2,0.21,0.25,0.33c0.05,0.12,0.09,0.23,0.12,0.33c0.07-0.07,0.15-0.17,0.26-0.29c0.11-0.12,0.25-0.23,0.42-0.34
		c0.17-0.11,0.37-0.2,0.59-0.29c0.23-0.08,0.49-0.12,0.8-0.12c0.2,0,0.41,0.03,0.63,0.08c0.22,0.05,0.42,0.15,0.6,0.29
		c0.18,0.14,0.3,0.34,0.38,0.6c0.08,0.26,0.08,0.59,0,0.99l-0.79,3.7h-1.04l0.75-3.54c0.05-0.24,0.07-0.42,0.06-0.54
		c-0.01-0.12-0.03-0.22-0.06-0.29c-0.07-0.12-0.18-0.24-0.33-0.34c-0.15-0.1-0.36-0.15-0.63-0.15c-0.17,0-0.32,0.02-0.46,0.07
		c-0.14,0.04-0.26,0.1-0.37,0.15c-0.11,0.06-0.2,0.12-0.28,0.19c-0.08,0.07-0.14,0.12-0.18,0.18c-0.08,0.09-0.15,0.19-0.2,0.3
		c-0.05,0.11-0.1,0.22-0.14,0.33c-0.04,0.11-0.07,0.22-0.1,0.32c-0.03,0.1-0.04,0.18-0.05,0.24l-0.66,3.08h-1.04l0.78-3.64
		c0.07-0.34,0.03-0.63-0.12-0.86c-0.15-0.23-0.43-0.35-0.84-0.35c-0.18,0-0.34,0.02-0.48,0.07c-0.15,0.05-0.28,0.1-0.39,0.17
		c-0.11,0.07-0.21,0.13-0.29,0.2c-0.08,0.07-0.14,0.12-0.18,0.16c-0.15,0.16-0.25,0.34-0.32,0.55c-0.07,0.21-0.12,0.4-0.15,0.57
		l-0.67,3.13h-1.04L175.54,51.78z"/>
	<path class="st0" d="M189.64,48.63h1.1l-1.68,7.93h-1.1L189.64,48.63z"/>
	<path class="st0" d="M192.08,51.69l0.13-0.64h1.03l-0.19,0.89c0.04-0.06,0.11-0.14,0.21-0.25c0.1-0.11,0.22-0.22,0.38-0.33
		c0.16-0.11,0.35-0.21,0.58-0.29c0.23-0.08,0.5-0.13,0.82-0.13c0.12,0,0.29,0.02,0.51,0.05c0.22,0.04,0.42,0.12,0.61,0.25
		c0.19,0.13,0.34,0.32,0.45,0.57c0.11,0.25,0.12,0.59,0.02,1.01l-0.79,3.74h-1.05l0.75-3.5c0.04-0.18,0.05-0.36,0.05-0.52
		c0-0.16-0.05-0.3-0.15-0.43c-0.1-0.12-0.23-0.22-0.4-0.28c-0.16-0.06-0.33-0.09-0.5-0.09c-0.19,0-0.38,0.03-0.56,0.1
		c-0.19,0.07-0.36,0.17-0.52,0.31c-0.16,0.14-0.3,0.31-0.42,0.52c-0.12,0.21-0.21,0.45-0.28,0.72l-0.67,3.17h-1.03L192.08,51.69z"/>
	<path class="st0" d="M203.22,48.65h1.03l-1.49,7.04c-0.01,0.03-0.02,0.08-0.03,0.15c-0.01,0.07-0.02,0.15-0.04,0.23
		c-0.01,0.08-0.03,0.17-0.04,0.26c-0.02,0.09-0.03,0.17-0.03,0.24h-1.03l0.16-0.88c-0.06,0.08-0.13,0.17-0.22,0.27
		c-0.09,0.1-0.22,0.2-0.39,0.31c-0.26,0.15-0.52,0.26-0.78,0.32s-0.48,0.09-0.67,0.09c-0.18,0-0.4-0.03-0.66-0.1
		c-0.26-0.07-0.49-0.2-0.7-0.4s-0.36-0.48-0.47-0.85c-0.1-0.37-0.09-0.85,0.04-1.46c0.11-0.53,0.27-0.98,0.49-1.36
		c0.22-0.38,0.47-0.69,0.76-0.93s0.59-0.43,0.91-0.54c0.32-0.12,0.64-0.18,0.97-0.18c0.29,0,0.53,0.04,0.72,0.12
		c0.19,0.08,0.34,0.17,0.45,0.27c0.11,0.1,0.19,0.21,0.24,0.31c0.05,0.1,0.08,0.18,0.1,0.24L203.22,48.65z M202.18,53.73
		c0.09-0.4,0.12-0.72,0.08-0.96c-0.03-0.24-0.09-0.43-0.17-0.58c-0.08-0.15-0.21-0.28-0.39-0.39c-0.18-0.11-0.42-0.17-0.71-0.17
		c-0.26,0-0.48,0.05-0.67,0.14s-0.35,0.21-0.49,0.35c-0.14,0.14-0.26,0.3-0.36,0.47c-0.1,0.17-0.18,0.34-0.25,0.51
		c-0.07,0.16-0.11,0.31-0.15,0.45c-0.03,0.14-0.05,0.23-0.06,0.29c-0.05,0.24-0.08,0.49-0.1,0.74c-0.02,0.25,0.01,0.48,0.08,0.68
		c0.07,0.2,0.19,0.37,0.36,0.49c0.17,0.13,0.42,0.19,0.73,0.19c0.4,0,0.73-0.1,1-0.29c0.26-0.19,0.47-0.41,0.63-0.66
		c0.15-0.25,0.27-0.5,0.33-0.74C202.11,54.01,202.16,53.84,202.18,53.73z"/>
	<path class="st0" d="M206.55,51.05l-0.76,3.55c-0.03,0.13-0.05,0.27-0.05,0.42c-0.01,0.15,0.02,0.28,0.08,0.4
		c0.06,0.12,0.15,0.21,0.29,0.29c0.14,0.08,0.33,0.12,0.6,0.12c0.26,0,0.51-0.05,0.76-0.14c0.25-0.1,0.47-0.25,0.66-0.47
		c0.15-0.17,0.26-0.35,0.32-0.54c0.06-0.19,0.1-0.35,0.13-0.49l0.67-3.12h1.06l-0.95,4.48c-0.01,0.03-0.02,0.08-0.03,0.16
		c-0.01,0.08-0.03,0.17-0.04,0.27c-0.01,0.1-0.03,0.21-0.05,0.32c-0.02,0.11-0.04,0.2-0.06,0.27h-1.08l0.18-0.94
		c-0.07,0.1-0.15,0.2-0.25,0.32c-0.1,0.12-0.23,0.22-0.38,0.32c-0.15,0.1-0.34,0.18-0.56,0.25c-0.22,0.07-0.48,0.1-0.77,0.1
		c-0.34,0-0.63-0.05-0.86-0.14c-0.23-0.09-0.41-0.22-0.54-0.38c-0.13-0.16-0.21-0.36-0.24-0.59c-0.03-0.23-0.02-0.48,0.04-0.75
		l0.79-3.7H206.55z"/>
	<path class="st0" d="M212.08,54.93c-0.02,0.1-0.03,0.21-0.03,0.33s0.04,0.22,0.11,0.32c0.07,0.1,0.18,0.18,0.32,0.25
		c0.14,0.07,0.34,0.1,0.59,0.1c0.21,0,0.4-0.02,0.58-0.07c0.17-0.05,0.33-0.14,0.47-0.28c0.15-0.15,0.25-0.33,0.29-0.52
		c0.03-0.13,0.03-0.24,0-0.33c-0.03-0.09-0.09-0.16-0.18-0.21c-0.09-0.05-0.2-0.1-0.35-0.15c-0.14-0.04-0.31-0.09-0.51-0.13
		c-0.27-0.07-0.53-0.14-0.77-0.21c-0.25-0.07-0.45-0.17-0.62-0.29c-0.16-0.12-0.28-0.27-0.36-0.45c-0.07-0.18-0.08-0.42-0.02-0.7
		c0.05-0.25,0.15-0.48,0.3-0.69c0.15-0.21,0.33-0.38,0.55-0.53c0.22-0.14,0.47-0.25,0.75-0.34c0.28-0.08,0.58-0.12,0.9-0.12
		c0.18,0,0.36,0.01,0.55,0.04c0.19,0.03,0.37,0.08,0.54,0.14c0.17,0.07,0.32,0.15,0.44,0.26c0.13,0.11,0.22,0.25,0.27,0.41
		c0.04,0.15,0.05,0.3,0.03,0.43c-0.01,0.13-0.04,0.26-0.07,0.37h-1.05c0.05-0.2,0.05-0.37,0.01-0.49c-0.05-0.12-0.12-0.21-0.22-0.27
		c-0.1-0.06-0.21-0.1-0.33-0.12c-0.12-0.01-0.23-0.02-0.32-0.02c-0.04,0-0.12,0-0.24,0.01c-0.12,0.01-0.26,0.04-0.4,0.09
		c-0.14,0.05-0.28,0.13-0.4,0.24c-0.12,0.11-0.21,0.26-0.25,0.46c-0.02,0.12-0.01,0.23,0.02,0.31c0.04,0.08,0.09,0.15,0.16,0.2
		c0.07,0.05,0.14,0.09,0.23,0.12c0.08,0.03,0.16,0.05,0.23,0.07c0.36,0.09,0.66,0.16,0.89,0.23c0.23,0.06,0.42,0.12,0.57,0.18
		c0.14,0.05,0.26,0.11,0.34,0.16c0.08,0.05,0.16,0.12,0.23,0.19c0.12,0.15,0.2,0.31,0.22,0.49c0.02,0.18,0.02,0.36-0.02,0.53
		c-0.07,0.31-0.2,0.59-0.4,0.83c-0.2,0.25-0.41,0.44-0.65,0.56c-0.27,0.15-0.55,0.25-0.85,0.3c-0.29,0.05-0.58,0.08-0.87,0.08
		c-0.28,0-0.54-0.03-0.79-0.09c-0.24-0.06-0.45-0.16-0.63-0.3s-0.29-0.32-0.36-0.55c-0.07-0.23-0.07-0.51,0.01-0.84H212.08z"/>
	<path class="st0" d="M216.96,51.03h0.98l0.24-1.15l1.1-0.33l-0.32,1.48h1.23l-0.16,0.76h-1.23l-0.7,3.31
		c-0.01,0.07-0.02,0.14-0.03,0.23c-0.02,0.09-0.01,0.17,0.03,0.24c0.03,0.07,0.09,0.14,0.18,0.19c0.09,0.05,0.22,0.08,0.41,0.08
		c0.1,0,0.2-0.01,0.3-0.02c0.1-0.01,0.16-0.02,0.21-0.04l-0.16,0.8c-0.1,0.01-0.23,0.03-0.37,0.04c-0.14,0.01-0.31,0.02-0.5,0.02
		c-0.48,0-0.81-0.08-1.01-0.25c-0.19-0.16-0.24-0.47-0.15-0.93l0.78-3.68h-0.98L216.96,51.03z"/>
	<path class="st0" d="M221.27,52.17c0.05-0.19,0.08-0.38,0.1-0.57s0.05-0.37,0.08-0.55h1.04l-0.21,1.06c0.1-0.19,0.2-0.35,0.33-0.48
		c0.12-0.13,0.26-0.24,0.4-0.32c0.14-0.08,0.29-0.15,0.43-0.19c0.14-0.04,0.27-0.07,0.39-0.09c0.16-0.02,0.3-0.03,0.42-0.03
		c0.12,0,0.22,0,0.31,0.01l-0.22,1.01c-0.04-0.01-0.11-0.03-0.19-0.04c-0.04-0.01-0.08-0.01-0.13-0.01c-0.05,0-0.11,0-0.16,0
		c-0.31,0-0.57,0.04-0.78,0.13c-0.21,0.08-0.39,0.2-0.53,0.35c-0.14,0.15-0.26,0.33-0.34,0.53c-0.08,0.21-0.15,0.42-0.2,0.66
		l-0.63,2.93h-1.04L221.27,52.17z"/>
	<path class="st0" d="M225.74,51.05h1.03l-1.18,5.51h-1.03L225.74,51.05z M226.13,48.66h1.24l-0.24,1.13h-1.24L226.13,48.66z"/>
	<path class="st0" d="M230.96,56.56c-0.01-0.14,0-0.27,0.01-0.41c0.01-0.13,0.04-0.27,0.07-0.42c-0.18,0.23-0.35,0.41-0.53,0.54
		c-0.18,0.13-0.35,0.23-0.52,0.3c-0.17,0.07-0.33,0.11-0.47,0.13c-0.15,0.02-0.28,0.03-0.4,0.03c-0.31,0-0.59-0.04-0.81-0.13
		c-0.23-0.08-0.41-0.2-0.54-0.35c-0.13-0.15-0.22-0.32-0.26-0.52c-0.04-0.2-0.04-0.41,0.01-0.64c0.02-0.11,0.06-0.23,0.12-0.37
		c0.05-0.14,0.13-0.28,0.24-0.42c0.1-0.14,0.23-0.29,0.38-0.43c0.15-0.14,0.34-0.27,0.57-0.39c0.17-0.08,0.34-0.14,0.53-0.19
		c0.18-0.05,0.37-0.08,0.55-0.11c0.18-0.03,0.35-0.04,0.51-0.05c0.16-0.01,0.29-0.01,0.4-0.01c0.13,0,0.25,0,0.35,0.01
		c0.1,0,0.23,0.01,0.4,0.03c0.04-0.17,0.07-0.32,0.09-0.44c0.02-0.13,0.04-0.24,0.05-0.33c0.01-0.09,0.01-0.17,0-0.25
		c-0.01-0.07-0.03-0.14-0.08-0.2c-0.07-0.14-0.2-0.23-0.38-0.29c-0.18-0.05-0.35-0.08-0.49-0.08c-0.26,0-0.47,0.04-0.64,0.12
		c-0.16,0.08-0.29,0.17-0.38,0.27c-0.1,0.1-0.16,0.21-0.2,0.31c-0.04,0.11-0.07,0.18-0.08,0.24h-1.03c0.05-0.15,0.11-0.31,0.19-0.49
		c0.08-0.18,0.22-0.36,0.42-0.55c0.13-0.12,0.28-0.21,0.44-0.29c0.16-0.08,0.33-0.14,0.49-0.18c0.17-0.04,0.34-0.07,0.5-0.09
		c0.17-0.02,0.33-0.03,0.47-0.03c0.2,0,0.39,0.02,0.59,0.05c0.19,0.03,0.37,0.08,0.53,0.15c0.16,0.07,0.3,0.15,0.42,0.25
		c0.12,0.1,0.2,0.22,0.24,0.36c0.05,0.17,0.07,0.32,0.06,0.46c-0.01,0.14-0.03,0.27-0.05,0.39l-0.6,2.63
		c-0.01,0.02-0.02,0.08-0.03,0.18c-0.02,0.1-0.03,0.21-0.06,0.34c-0.03,0.13-0.05,0.27-0.07,0.43c-0.02,0.15-0.04,0.3-0.04,0.44
		H230.96z M231.41,53.88c-0.1-0.01-0.19-0.02-0.27-0.03c-0.08,0-0.19-0.01-0.31-0.01c-0.1,0-0.27,0.01-0.49,0.02
		c-0.22,0.01-0.45,0.05-0.69,0.12c-0.24,0.07-0.46,0.18-0.66,0.34c-0.2,0.15-0.33,0.37-0.39,0.65c-0.02,0.09-0.03,0.19-0.02,0.3
		c0.01,0.11,0.05,0.21,0.11,0.31c0.06,0.1,0.16,0.18,0.29,0.25c0.13,0.07,0.31,0.1,0.55,0.1c0.53,0,0.96-0.2,1.31-0.59
		c0.08-0.1,0.15-0.19,0.2-0.27c0.05-0.09,0.1-0.19,0.13-0.3c0.04-0.11,0.07-0.24,0.11-0.38C231.32,54.24,231.36,54.07,231.41,53.88z
		"/>
	<path class="st0" d="M235.41,48.65h1.03l-1.68,7.92h-1.03L235.41,48.65z"/>
	<polygon class="st0" points="155.94,13.99 153.45,18.59 149.78,25.39 153.45,25.39 157.12,25.39 156.05,13.99 	"/>
	<path class="st0" d="M43.55,3v5.63h8.1v1.02h-8.1v5.47h8.1v1.02h-8.1v5.65h8.1v1.02h-8.1v5.74h8.1v1.02h-8.1v5.49h8.1v1.02h-8.1
		v5.58h150.9V3H43.55z M80.33,16.69h-7.6c0.26-1.06,0.09-1.86-0.47-2.43c-0.53-0.57-1.45-0.87-2.74-0.87c-1.75,0-3.51,1.14-3.8,2.51
		c-0.43,2.01,1.87,2.66,3.77,3.19c4.35,1.18,10.94,1.63,9.37,9.05c-1.23,5.78-7.51,8.52-13.86,8.52c-6.39,0-11.62-1.87-10.15-9.32
		h7.6c-0.58,2.58,1.01,3.99,3.75,3.99c1.75,0,4.19-0.91,4.57-2.74c0.79-3.73-5-2.93-10.41-5.55c-2.52-1.22-3.34-3.73-2.72-6.69
		c1.68-6.5,7.77-8.29,13.51-8.29C76.81,8.06,82.19,10.07,80.33,16.69z M103.63,24.93H91.39l-1.24,5.82h13.3l-1.13,5.32H81.42
		l5.83-27.44h20.14h0.77l-0.77,3.61l-0.36,1.71h-13.3l-1.2,5.66h12.24L103.63,24.93z M122.85,36.07L118,15.05h-0.08l-4.47,21.02
		h-6.07h-0.77l0.77-3.62l5.06-23.82h10.64l4.85,20.45l0.09-0.08l4.33-20.37h5.33h1.51l-1.51,7.11l-4.32,20.34H122.85z M158.54,36.07
		l-0.68-5.36h-4.4h-6.73l-2.93,5.36h-6.09h-1.51l1.51-2.49l15.16-24.96h0.6h8.68l5,27.44H158.54z M177.62,36.07h-7.6l5.83-27.44h7.6
		L177.62,36.07z M194.44,36.07h-8.1v-1.02h8.1V36.07z M194.44,29.55h-8.1v-1.02h8.1V29.55z M194.44,22.8h-8.1v-1.02h8.1V22.8z
		 M194.44,16.14h-8.1v-1.02h8.1V16.14z M194.44,9.65h-8.1V8.63h8.1V9.65z"/>
	<path class="st0" d="M49.22,67.1c0.45,0.01,0.85,0.06,1.17,0.15c0.33,0.09,0.59,0.22,0.78,0.4c0.2,0.17,0.34,0.39,0.44,0.66
		c0.1,0.26,0.15,0.57,0.15,0.91c0,0.36-0.05,0.66-0.15,0.92c-0.1,0.26-0.25,0.47-0.44,0.63c-0.19,0.15-0.4,0.28-0.61,0.38
		c-0.22,0.1-0.45,0.17-0.68,0.2c-0.05,0.01-0.1,0.01-0.15,0.02c-0.05,0.01-0.1,0.01-0.15,0.01c-0.05,0.01-0.1,0.01-0.15,0.01
		c-0.05,0-0.1,0-0.15,0l-1.45-0.02v2.4h-1.89V67.1H49.22z M47.85,70.07h0.87c0.18,0.01,0.34,0,0.47-0.04
		c0.14-0.04,0.25-0.1,0.34-0.18c0.09-0.09,0.16-0.18,0.21-0.28c0.05-0.1,0.07-0.22,0.07-0.35c0-0.14-0.03-0.26-0.09-0.37
		c-0.06-0.1-0.15-0.19-0.26-0.25c-0.12-0.06-0.25-0.11-0.4-0.14c-0.15-0.03-0.31-0.05-0.49-0.05l-0.72-0.02V70.07z"/>
	<path class="st0" d="M57.65,67.1v1.37h-3.19v1.31h2.98v1.38h-2.98v1.3h3.19v1.31h-5.08V67.1H57.65z"/>
	<path class="st0" d="M60.63,67.1v5.3h2.98v1.38h-4.87V67.1H60.63z"/>
	<path class="st0" d="M64.39,69.23c0.12-0.41,0.29-0.79,0.51-1.16c0.22-0.36,0.57-0.64,1.04-0.82s1.07-0.28,1.8-0.28
		c0.01,0,0.02,0,0.03,0c0.01,0,0.02,0,0.03,0c0.01,0,0.01,0,0.02,0c0.01,0,0.02,0,0.02,0c0.01,0,0.02,0,0.03,0c0.01,0,0.02,0,0.03,0
		c0.01,0,0.01,0,0.02,0c0.01,0,0.02,0,0.02,0c0.4,0.02,0.79,0.09,1.15,0.21c0.37,0.12,0.72,0.3,1.05,0.53
		c0.33,0.23,0.58,0.58,0.75,1.04c0.17,0.46,0.25,1.03,0.25,1.7c0,0.09,0,0.18-0.01,0.28c0,0.09-0.01,0.19-0.02,0.29
		c-0.01,0.05-0.01,0.1-0.02,0.15c-0.01,0.05-0.01,0.1-0.02,0.15c-0.01,0.06-0.02,0.11-0.03,0.16c-0.01,0.05-0.02,0.1-0.03,0.15
		c-0.07,0.3-0.19,0.58-0.35,0.84s-0.35,0.52-0.59,0.76c-0.23,0.24-0.54,0.42-0.92,0.54c-0.38,0.12-0.83,0.18-1.36,0.18
		c-0.7,0-1.29-0.08-1.75-0.24c-0.47-0.16-0.82-0.41-1.06-0.74c-0.24-0.33-0.43-0.68-0.56-1.05c-0.14-0.37-0.22-0.75-0.25-1.16
		c0-0.01,0-0.01,0-0.02c0-0.01,0-0.02,0-0.03c-0.01-0.01-0.01-0.01-0.01-0.02c0-0.01,0-0.02,0-0.02c0-0.02,0-0.04,0-0.06
		c0-0.02,0-0.04,0-0.06v-0.02C64.2,70.06,64.27,69.64,64.39,69.23z M66.24,71.24c0.06,0.25,0.16,0.49,0.29,0.71
		c0.13,0.23,0.29,0.4,0.5,0.51c0.2,0.11,0.44,0.17,0.71,0.17c0.23,0,0.44-0.04,0.62-0.13c0.18-0.09,0.33-0.23,0.46-0.41
		c0.12-0.18,0.22-0.4,0.28-0.68c0.06-0.27,0.1-0.59,0.1-0.95c0-0.29-0.03-0.56-0.09-0.82c-0.06-0.26-0.15-0.49-0.27-0.71
		c-0.12-0.22-0.27-0.38-0.47-0.49c-0.2-0.11-0.43-0.17-0.7-0.17c-0.27,0-0.5,0.06-0.69,0.17c-0.19,0.11-0.34,0.28-0.45,0.51
		c-0.11,0.23-0.2,0.47-0.26,0.71c-0.06,0.25-0.1,0.51-0.12,0.78v-0.02C66.14,70.72,66.18,70.99,66.24,71.24z"/>
	<path class="st0" d="M79.88,67.1v1.37h-2.83v1.53h2.61v1.3h-2.61v2.47h-1.89V67.1H79.88z"/>
	<path class="st0" d="M82.79,67.1v3.92c0,0.25,0.02,0.47,0.07,0.66s0.12,0.36,0.22,0.51c0.1,0.15,0.24,0.26,0.41,0.33
		c0.17,0.07,0.37,0.11,0.6,0.11c0.27,0,0.5-0.04,0.68-0.11c0.18-0.07,0.32-0.19,0.41-0.34c0.09-0.15,0.16-0.33,0.21-0.54
		c0.05-0.2,0.07-0.43,0.07-0.68V67.1h1.89v4.13c0,0.41-0.06,0.78-0.19,1.12c-0.13,0.33-0.32,0.63-0.57,0.89
		c-0.26,0.26-0.59,0.45-1.01,0.58c-0.41,0.13-0.92,0.19-1.5,0.19c-0.49,0-0.92-0.06-1.31-0.18c-0.39-0.12-0.73-0.31-1.02-0.57
		c-0.28-0.26-0.5-0.55-0.64-0.87c-0.14-0.32-0.22-0.67-0.22-1.05V67.1H82.79z"/>
	<path class="st0" d="M94.04,67.1v1.37h-2.1v5.31h-1.82v-5.31h-2.1V67.1H94.04z"/>
	<path class="st0" d="M96.67,67.1v3.92c0,0.25,0.02,0.47,0.07,0.66s0.12,0.36,0.22,0.51c0.1,0.15,0.24,0.26,0.41,0.33
		c0.17,0.07,0.37,0.11,0.6,0.11c0.27,0,0.5-0.04,0.68-0.11c0.18-0.07,0.32-0.19,0.41-0.34c0.09-0.15,0.16-0.33,0.21-0.54
		c0.05-0.2,0.07-0.43,0.07-0.68V67.1h1.89v4.13c0,0.41-0.06,0.78-0.19,1.12c-0.13,0.33-0.32,0.63-0.57,0.89
		c-0.26,0.26-0.59,0.45-1.01,0.58c-0.41,0.13-0.92,0.19-1.5,0.19c-0.49,0-0.92-0.06-1.31-0.18c-0.39-0.12-0.73-0.31-1.02-0.57
		c-0.28-0.26-0.5-0.55-0.64-0.87c-0.14-0.32-0.22-0.67-0.22-1.05V67.1H96.67z"/>
	<path class="st0" d="M105.31,67.1c0.01,0.01,0.03,0.02,0.04,0.02c0.02,0,0.03,0,0.04,0c0.01,0,0.03,0,0.04,0c0.01,0,0.03,0,0.05,0
		c0.31,0.01,0.61,0.04,0.9,0.1c0.29,0.06,0.56,0.15,0.82,0.26c0.26,0.12,0.45,0.29,0.59,0.52c0.13,0.23,0.2,0.52,0.2,0.86
		c0,0.27-0.04,0.51-0.12,0.71c-0.08,0.2-0.2,0.36-0.36,0.48c-0.15,0.12-0.33,0.22-0.52,0.3c-0.19,0.08-0.39,0.14-0.61,0.18
		c0.33,0.01,0.59,0.07,0.79,0.18c0.2,0.11,0.34,0.27,0.42,0.48s0.15,0.43,0.2,0.66c0.05,0.23,0.09,0.46,0.12,0.71
		c0,0.01,0,0.01,0,0.02c0,0.01,0,0.01,0,0.02c0,0.01,0,0.01,0,0.02c0,0.01,0,0.01,0.01,0.02c0.01,0.1,0.02,0.2,0.03,0.3
		c0.01,0.1,0.02,0.2,0.03,0.31c0.01,0.1,0.03,0.19,0.06,0.28c0.02,0.09,0.05,0.17,0.08,0.25h-2.03c-0.02-0.05-0.04-0.11-0.06-0.18
		c-0.02-0.07-0.03-0.14-0.04-0.22c-0.01-0.08-0.01-0.16-0.02-0.24c-0.01-0.08-0.01-0.17-0.02-0.25c0-0.01,0-0.02,0-0.03
		c0-0.01,0-0.01,0-0.03c-0.01-0.01-0.01-0.01-0.01-0.02c0-0.01,0-0.02,0-0.02c0-0.02,0-0.04,0-0.06c0-0.02,0-0.04,0-0.06
		c-0.01-0.18-0.03-0.35-0.06-0.51c-0.03-0.16-0.07-0.32-0.12-0.47c-0.05-0.15-0.13-0.26-0.25-0.33c-0.12-0.07-0.27-0.11-0.44-0.11
		l-0.87-0.02v2.55h-1.89V67.1H105.31z M104.22,69.93h0.73c0.01,0.01,0.03,0.02,0.04,0.02c0.02,0,0.03,0,0.04,0c0.01,0,0.03,0,0.04,0
		s0.03,0,0.05,0c0.11-0.01,0.22-0.02,0.32-0.05c0.1-0.03,0.21-0.06,0.31-0.11c0.09-0.05,0.16-0.12,0.21-0.21
		c0.05-0.09,0.07-0.21,0.07-0.36c0-0.12-0.02-0.23-0.07-0.32c-0.05-0.09-0.12-0.17-0.22-0.23c-0.1-0.06-0.21-0.1-0.33-0.13
		c-0.12-0.03-0.26-0.05-0.4-0.05l-0.79-0.02V69.93z"/>
	<path class="st0" d="M109.07,69.23c0.12-0.41,0.29-0.79,0.51-1.16c0.22-0.36,0.57-0.64,1.04-0.82s1.07-0.28,1.8-0.28
		c0.01,0,0.02,0,0.03,0c0.01,0,0.02,0,0.03,0c0.01,0,0.01,0,0.02,0c0.01,0,0.02,0,0.02,0c0.01,0,0.02,0,0.03,0c0.01,0,0.02,0,0.03,0
		c0.01,0,0.01,0,0.02,0c0.01,0,0.02,0,0.02,0c0.4,0.02,0.79,0.09,1.15,0.21c0.37,0.12,0.72,0.3,1.05,0.53
		c0.33,0.23,0.58,0.58,0.75,1.04c0.17,0.46,0.25,1.03,0.25,1.7c0,0.09,0,0.18-0.01,0.28c0,0.09-0.01,0.19-0.02,0.29
		c-0.01,0.05-0.01,0.1-0.02,0.15c-0.01,0.05-0.01,0.1-0.02,0.15c-0.01,0.06-0.02,0.11-0.03,0.16c-0.01,0.05-0.02,0.1-0.03,0.15
		c-0.07,0.3-0.19,0.58-0.35,0.84s-0.35,0.52-0.59,0.76c-0.23,0.24-0.54,0.42-0.92,0.54c-0.38,0.12-0.83,0.18-1.36,0.18
		c-0.7,0-1.29-0.08-1.75-0.24c-0.47-0.16-0.82-0.41-1.06-0.74c-0.24-0.33-0.43-0.68-0.56-1.05c-0.14-0.37-0.22-0.75-0.25-1.16
		c0-0.01,0-0.01,0-0.02c0-0.01,0-0.02,0-0.03c-0.01-0.01-0.01-0.01-0.01-0.02c0-0.01,0-0.02,0-0.02c0-0.02,0-0.04,0-0.06
		c0-0.02,0-0.04,0-0.06v-0.02C108.88,70.06,108.95,69.64,109.07,69.23z M110.93,71.24c0.06,0.25,0.16,0.49,0.29,0.71
		c0.13,0.23,0.29,0.4,0.5,0.51c0.2,0.11,0.44,0.17,0.71,0.17c0.23,0,0.44-0.04,0.62-0.13c0.18-0.09,0.33-0.23,0.46-0.41
		c0.12-0.18,0.22-0.4,0.28-0.68c0.06-0.27,0.1-0.59,0.1-0.95c0-0.29-0.03-0.56-0.09-0.82c-0.06-0.26-0.15-0.49-0.27-0.71
		c-0.12-0.22-0.27-0.38-0.47-0.49c-0.2-0.11-0.43-0.17-0.7-0.17c-0.27,0-0.5,0.06-0.69,0.17c-0.19,0.11-0.34,0.28-0.45,0.51
		c-0.11,0.23-0.2,0.47-0.26,0.71c-0.06,0.25-0.1,0.51-0.12,0.78v-0.02C110.83,70.72,110.86,70.99,110.93,71.24z"/>
	<path class="st0" d="M122.75,67.1c0.76,0.01,1.4,0.1,1.91,0.27c0.51,0.17,0.89,0.42,1.15,0.76c0.26,0.34,0.45,0.7,0.59,1.1
		c0.13,0.39,0.2,0.81,0.21,1.25c0,0.01,0,0.02,0,0.03c0,0.01,0,0.01,0,0.02c0,0.01,0,0.01,0,0.02c0,0.01,0,0.02,0,0.03
		c0,0.01,0,0.01,0,0.02c0,0.01,0,0.01,0,0.02c-0.01,0.01-0.01,0.03-0.01,0.04c0,0.01,0,0.02,0,0.04c0,0.01,0,0.01,0,0.02
		s0,0.02,0,0.03c-0.02,0.53-0.11,0.99-0.28,1.37c-0.17,0.39-0.41,0.7-0.73,0.94c-0.32,0.25-0.66,0.43-1.01,0.54
		c-0.35,0.12-0.72,0.18-1.1,0.18h-3.56V67.1H122.75z M122.75,72.47c0.31,0.01,0.57-0.03,0.8-0.12c0.22-0.09,0.41-0.23,0.57-0.41
		c0.15-0.18,0.27-0.38,0.36-0.58c0.09-0.2,0.14-0.42,0.16-0.64c0-0.01,0-0.01,0-0.02c0-0.01,0-0.02,0.01-0.03c0-0.01,0-0.01,0-0.02
		c0-0.01,0-0.02,0-0.02c0-0.01,0-0.02,0-0.03c0-0.01,0-0.02,0-0.03c0-0.01,0-0.01,0-0.02s0-0.02,0-0.02c0-0.01,0-0.02,0-0.04
		c0-0.01,0-0.03,0-0.05c-0.01-0.01-0.01-0.02-0.01-0.04c0-0.01,0-0.02,0-0.04c0-0.03,0-0.06,0-0.09c0-0.03-0.01-0.05-0.01-0.08
		c-0.04-0.21-0.1-0.42-0.2-0.62c-0.1-0.2-0.22-0.38-0.38-0.56c-0.16-0.18-0.34-0.31-0.54-0.4c-0.2-0.09-0.42-0.13-0.66-0.13
		l-1.01-0.02v3.99H122.75z"/>
	<path class="st0" d="M127.53,69.23c0.12-0.41,0.29-0.79,0.51-1.16c0.22-0.36,0.57-0.64,1.04-0.82s1.07-0.28,1.8-0.28
		c0.01,0,0.02,0,0.03,0c0.01,0,0.02,0,0.03,0c0.01,0,0.01,0,0.02,0c0.01,0,0.02,0,0.02,0c0.01,0,0.02,0,0.03,0c0.01,0,0.02,0,0.03,0
		c0.01,0,0.01,0,0.02,0c0.01,0,0.02,0,0.02,0c0.4,0.02,0.79,0.09,1.15,0.21c0.37,0.12,0.72,0.3,1.05,0.53
		c0.33,0.23,0.58,0.58,0.75,1.04c0.17,0.46,0.25,1.03,0.25,1.7c0,0.09,0,0.18-0.01,0.28c0,0.09-0.01,0.19-0.02,0.29
		c-0.01,0.05-0.01,0.1-0.02,0.15c-0.01,0.05-0.01,0.1-0.02,0.15c-0.01,0.06-0.02,0.11-0.03,0.16c-0.01,0.05-0.02,0.1-0.03,0.15
		c-0.07,0.3-0.19,0.58-0.35,0.84s-0.35,0.52-0.59,0.76c-0.23,0.24-0.54,0.42-0.92,0.54c-0.38,0.12-0.83,0.18-1.36,0.18
		c-0.7,0-1.29-0.08-1.75-0.24c-0.47-0.16-0.82-0.41-1.06-0.74c-0.24-0.33-0.43-0.68-0.56-1.05c-0.14-0.37-0.22-0.75-0.25-1.16
		c0-0.01,0-0.01,0-0.02c0-0.01,0-0.02,0-0.03c-0.01-0.01-0.01-0.01-0.01-0.02c0-0.01,0-0.02,0-0.02c0-0.02,0-0.04,0-0.06
		c0-0.02,0-0.04,0-0.06v-0.02C127.34,70.06,127.41,69.64,127.53,69.23z M129.39,71.24c0.06,0.25,0.16,0.49,0.29,0.71
		c0.13,0.23,0.29,0.4,0.5,0.51c0.2,0.11,0.44,0.17,0.71,0.17c0.23,0,0.44-0.04,0.62-0.13c0.18-0.09,0.33-0.23,0.46-0.41
		c0.12-0.18,0.22-0.4,0.28-0.68c0.06-0.27,0.1-0.59,0.1-0.95c0-0.29-0.03-0.56-0.09-0.82c-0.06-0.26-0.15-0.49-0.27-0.71
		c-0.12-0.22-0.27-0.38-0.47-0.49c-0.2-0.11-0.43-0.17-0.7-0.17c-0.27,0-0.5,0.06-0.69,0.17c-0.19,0.11-0.34,0.28-0.45,0.51
		s-0.2,0.47-0.26,0.71c-0.06,0.25-0.1,0.51-0.12,0.78v-0.02C129.29,70.72,129.32,70.99,129.39,71.24z"/>
	<path class="st0" d="M143.82,67.1v1.37h-2.1v5.31h-1.82v-5.31h-2.1V67.1H143.82z"/>
	<path class="st0" d="M147.38,67.1c0.01,0.01,0.03,0.02,0.04,0.02s0.03,0,0.04,0c0.01,0,0.03,0,0.04,0c0.01,0,0.03,0,0.05,0
		c0.31,0.01,0.61,0.04,0.9,0.1c0.29,0.06,0.56,0.15,0.82,0.26c0.26,0.12,0.45,0.29,0.59,0.52c0.13,0.23,0.2,0.52,0.2,0.86
		c0,0.27-0.04,0.51-0.12,0.71c-0.08,0.2-0.2,0.36-0.36,0.48c-0.15,0.12-0.33,0.22-0.52,0.3c-0.19,0.08-0.39,0.14-0.61,0.18
		c0.33,0.01,0.59,0.07,0.79,0.18c0.2,0.11,0.34,0.27,0.42,0.48c0.08,0.21,0.15,0.43,0.2,0.66c0.05,0.23,0.09,0.46,0.12,0.71
		c0,0.01,0,0.01,0,0.02c0,0.01,0,0.01,0,0.02c0,0.01,0,0.01,0,0.02c0,0.01,0,0.01,0.01,0.02c0.01,0.1,0.02,0.2,0.03,0.3
		c0.01,0.1,0.02,0.2,0.03,0.31c0.01,0.1,0.03,0.19,0.06,0.28c0.02,0.09,0.05,0.17,0.08,0.25h-2.03c-0.02-0.05-0.04-0.11-0.06-0.18
		c-0.02-0.07-0.03-0.14-0.04-0.22c-0.01-0.08-0.01-0.16-0.02-0.24c-0.01-0.08-0.01-0.17-0.02-0.25c0-0.01,0-0.02,0-0.03
		c0-0.01,0-0.01,0-0.03c-0.01-0.01-0.01-0.01-0.01-0.02c0-0.01,0-0.02,0-0.02c0-0.02,0-0.04,0-0.06c0-0.02,0-0.04,0-0.06
		c-0.01-0.18-0.03-0.35-0.06-0.51c-0.03-0.16-0.07-0.32-0.12-0.47c-0.05-0.15-0.13-0.26-0.25-0.33c-0.12-0.07-0.27-0.11-0.44-0.11
		l-0.87-0.02v2.55h-1.89V67.1H147.38z M146.29,69.93h0.73c0.01,0.01,0.03,0.02,0.04,0.02c0.02,0,0.03,0,0.04,0c0.01,0,0.03,0,0.04,0
		s0.03,0,0.05,0c0.11-0.01,0.22-0.02,0.32-0.05c0.1-0.03,0.21-0.06,0.31-0.11c0.09-0.05,0.16-0.12,0.21-0.21
		c0.05-0.09,0.07-0.21,0.07-0.36c0-0.12-0.02-0.23-0.07-0.32c-0.05-0.09-0.12-0.17-0.22-0.23c-0.1-0.06-0.21-0.1-0.33-0.13
		c-0.12-0.03-0.26-0.05-0.4-0.05l-0.79-0.02V69.93z"/>
	<path class="st0" d="M155.51,67.1l2.62,6.68h-2.1l-0.44-1.24h-2.61l-0.43,1.24h-1.97l2.68-6.68H155.51z M154.28,68.47l-0.88,2.69
		h1.67L154.28,68.47z"/>
	<path class="st0" d="M161.84,67.1c0.06,0.01,0.13,0.02,0.21,0.02c0.09,0,0.19,0.01,0.31,0.01c0.12,0.01,0.23,0.02,0.36,0.04
		c0.12,0.02,0.24,0.05,0.37,0.09c0.16,0.04,0.32,0.11,0.47,0.19c0.15,0.08,0.29,0.18,0.43,0.29c0.14,0.12,0.25,0.26,0.33,0.43
		c0.08,0.17,0.12,0.38,0.14,0.61c0,0.01,0,0.01,0,0.02c0,0.01,0,0.01,0,0.02c0,0.01,0,0.01,0,0.01c0,0,0,0.01,0.01,0.01
		c0,0.01,0,0.01,0,0.02c0,0.01,0,0.01,0,0.02c0,0.01,0,0.01,0,0.01s0,0.01,0,0.01c0,0.18-0.03,0.36-0.1,0.52
		c-0.07,0.16-0.17,0.3-0.29,0.43c-0.14,0.13-0.29,0.23-0.47,0.3c-0.18,0.07-0.37,0.12-0.6,0.14h0.01v0.01c0.01,0,0.01,0,0.02,0
		c0.2,0.06,0.38,0.13,0.56,0.22c0.18,0.09,0.35,0.2,0.52,0.32c0.16,0.12,0.28,0.28,0.36,0.47c0.08,0.19,0.12,0.41,0.12,0.66
		c0,0.33-0.06,0.6-0.18,0.84c-0.12,0.23-0.29,0.42-0.53,0.56c-0.23,0.14-0.51,0.24-0.86,0.3c-0.34,0.07-0.74,0.1-1.2,0.1h-2.98V67.1
		H161.84z M161.69,69.71c0.14,0.01,0.27,0,0.37-0.02c0.1-0.03,0.19-0.07,0.25-0.12c0.06-0.06,0.11-0.12,0.14-0.2
		c0.03-0.08,0.05-0.18,0.05-0.29c0-0.09-0.02-0.17-0.06-0.25s-0.09-0.15-0.16-0.21c-0.07-0.07-0.16-0.12-0.26-0.15
		c-0.1-0.03-0.21-0.05-0.33-0.05l-0.94-0.02v1.31H161.69z M161.77,72.47c0.14,0.01,0.26,0.01,0.36-0.02
		c0.1-0.02,0.18-0.06,0.24-0.12c0.07-0.06,0.12-0.11,0.16-0.18c0.04-0.06,0.06-0.12,0.08-0.18c0-0.01,0-0.01,0-0.02
		c0-0.01,0-0.01,0.01-0.02c0-0.01,0-0.02,0-0.03c0-0.01,0-0.01,0-0.02c0-0.01,0-0.01,0.01-0.02c0-0.01,0-0.01,0-0.02
		c0-0.01,0-0.01,0-0.02c0-0.01,0-0.02,0-0.03c0-0.01,0-0.02,0-0.02c-0.01-0.01-0.01-0.02-0.01-0.03c0-0.01,0-0.02,0-0.02
		c-0.01-0.02-0.01-0.04-0.01-0.06c0-0.02-0.01-0.05-0.02-0.07c-0.02-0.06-0.06-0.11-0.1-0.17c-0.04-0.06-0.09-0.11-0.15-0.16
		c-0.06-0.05-0.13-0.09-0.22-0.12c-0.08-0.03-0.18-0.04-0.28-0.04l-1.09-0.02v1.37H161.77z"/>
	<path class="st0" d="M169.89,67.1l2.62,6.68h-2.1l-0.44-1.24h-2.61l-0.43,1.24h-1.97l2.68-6.68H169.89z M168.67,68.47l-0.88,2.69
		h1.67L168.67,68.47z"/>
	<path class="st0" d="M175.14,67.1v5.3h2.98v1.38h-4.87V67.1H175.14z"/>
	<path class="st0" d="M180.8,67.1v2.68h2.25V67.1h1.89v6.68h-1.89v-2.68h-2.25v2.68h-1.89V67.1H180.8z"/>
	<path class="st0" d="M186.09,69.23c0.12-0.41,0.29-0.79,0.51-1.16c0.22-0.36,0.57-0.64,1.04-0.82s1.07-0.28,1.8-0.28
		c0.01,0,0.02,0,0.03,0c0.01,0,0.02,0,0.03,0c0.01,0,0.01,0,0.02,0c0.01,0,0.02,0,0.02,0c0.01,0,0.02,0,0.03,0s0.02,0,0.03,0
		c0.01,0,0.01,0,0.02,0c0.01,0,0.02,0,0.02,0c0.4,0.02,0.79,0.09,1.15,0.21c0.37,0.12,0.72,0.3,1.05,0.53
		c0.33,0.23,0.58,0.58,0.75,1.04c0.17,0.46,0.25,1.03,0.25,1.7c0,0.09,0,0.18-0.01,0.28c0,0.09-0.01,0.19-0.02,0.29
		c-0.01,0.05-0.01,0.1-0.02,0.15c-0.01,0.05-0.01,0.1-0.02,0.15c-0.01,0.06-0.02,0.11-0.03,0.16c-0.01,0.05-0.02,0.1-0.03,0.15
		c-0.07,0.3-0.19,0.58-0.35,0.84s-0.35,0.52-0.59,0.76c-0.23,0.24-0.54,0.42-0.92,0.54c-0.38,0.12-0.83,0.18-1.36,0.18
		c-0.7,0-1.29-0.08-1.75-0.24c-0.47-0.16-0.82-0.41-1.06-0.74c-0.24-0.33-0.43-0.68-0.56-1.05c-0.14-0.37-0.22-0.75-0.25-1.16
		c0-0.01,0-0.01,0-0.02c0-0.01,0-0.02,0-0.03c-0.01-0.01-0.01-0.01-0.01-0.02c0-0.01,0-0.02,0-0.02c0-0.02,0-0.04,0-0.06
		c0-0.02,0-0.04,0-0.06v-0.02C185.9,70.06,185.97,69.64,186.09,69.23z M187.95,71.24c0.06,0.25,0.16,0.49,0.29,0.71
		c0.13,0.23,0.29,0.4,0.5,0.51c0.2,0.11,0.44,0.17,0.71,0.17c0.23,0,0.44-0.04,0.62-0.13c0.18-0.09,0.33-0.23,0.46-0.41
		c0.12-0.18,0.22-0.4,0.28-0.68c0.06-0.27,0.1-0.59,0.1-0.95c0-0.29-0.03-0.56-0.09-0.82c-0.06-0.26-0.15-0.49-0.27-0.71
		c-0.12-0.22-0.27-0.38-0.47-0.49c-0.2-0.11-0.43-0.17-0.7-0.17c-0.27,0-0.5,0.06-0.69,0.17c-0.19,0.11-0.34,0.28-0.45,0.51
		c-0.11,0.23-0.2,0.47-0.26,0.71c-0.06,0.25-0.1,0.51-0.12,0.78v-0.02C187.85,70.72,187.88,70.99,187.95,71.24z"/>
</g>
</svg>
