<?xml version="1.0" standalone="no"?>
<!DOCTYPE svg PUBLIC "-//W3C//DTD SVG 20010904//EN"
 "http://www.w3.org/TR/2001/REC-SVG-20010904/DTD/svg10.dtd">
<svg version="1.0" xmlns="http://www.w3.org/2000/svg"
 width="22.000000pt" height="22.000000pt" viewBox="0 0 22.000000 22.000000"
 preserveAspectRatio="xMidYMid meet">

<g transform="translate(0.000000,22.000000) scale(0.100000,-0.100000)"
fill="#000000" stroke="none">
<path d="M168 196 c-13 -9 -13 -15 -4 -28 9 -13 15 -13 28 -4 13 9 13 15 4 28
-9 13 -15 13 -28 4z"/>
<path d="M70 158 c-7 -15 -25 -31 -39 -36 l-26 -9 27 -13 c15 -7 31 -25 36
-39 l9 -26 13 27 c7 15 25 31 39 36 l26 9 -27 13 c-15 7 -31 25 -36 39 l-9 26
-13 -27z m27 -59 c-8 -13 -14 -15 -28 -6 -13 8 -15 14 -6 28 8 13 14 15 28 6
13 -8 15 -14 6 -28z"/>
<path d="M168 56 c-13 -9 -13 -15 -4 -28 9 -13 15 -13 28 -4 13 9 13 15 4 28
-9 13 -15 13 -28 4z"/>
</g>
</svg>
